<?xml version="1.0" encoding="UTF-8"?>
<svg width="431px" height="428px" viewBox="0 0 431 428" version="1.1" xmlns="http://www.w3.org/2000/svg" xmlns:xlink="http://www.w3.org/1999/xlink">
    <!-- Generator: Sketch 51.3 (57544) - http://www.bohemiancoding.com/sketch -->
    <title>company1</title>
    <desc>Created with Sketch.</desc>
    <defs>
        <rect id="path-1" x="0" y="0" width="483" height="404.482759"></rect>
    </defs>
    <g id="Page-1" stroke="none" stroke-width="1" fill="none" fill-rule="evenodd">
        <g id="company1" transform="translate(-32.000000, -39.000000)">
            <g transform="translate(9.000000, 0.000000)">
                <path d="M38.9907241,452.259207 L38.9907241,446.877207 C39.0113449,446.320445 39.0319654,445.706986 39.0525862,445.03681 C39.073207,444.366635 39.1041377,443.742865 39.1453793,443.165483 L38.9907241,443.165483 C38.6814122,443.681003 38.3514845,444.186204 38.000931,444.681103 L36.9492759,446.165793 L32.2168276,452.259207 L38.9907241,452.259207 Z M44.8057586,454.671828 L41.8673103,454.671828 L41.8673103,459.930103 L38.9907241,459.930103 L38.9907241,454.671828 L29,454.671828 L29,452.599448 L38.4339655,440.196103 L41.8673103,440.196103 L41.8673103,452.259207 L44.8057586,452.259207 L44.8057586,454.671828 Z M49.1051724,444.804828 L51.6105862,444.804828 L51.8580345,447.248379 L51.9817586,447.248379 C52.744728,446.464789 53.5695473,445.799779 54.4562414,445.253328 C55.3429355,444.706877 56.3739596,444.433655 57.5493448,444.433655 C59.322733,444.433655 60.6218235,444.959478 61.4466552,446.011138 C62.2714869,447.062798 62.6838966,448.578404 62.6838966,450.558 L62.6838966,459.930103 L59.6217241,459.930103 L59.6217241,450.960103 C59.6217241,449.640373 59.3845886,448.666055 58.9103103,448.037121 C58.4360321,447.408187 57.621523,447.093724 56.4667586,447.093724 C55.6625477,447.093724 54.9408308,447.294774 54.3015862,447.696879 C53.6623416,448.098985 52.950935,448.702134 52.1673448,449.506345 L52.1673448,459.930103 L49.1051724,459.930103 L49.1051724,444.804828 Z M74.2211724,460.301276 C71.9941268,460.301276 70.2362306,459.414595 68.947431,457.641207 C67.6586315,455.867819 67.0142414,453.321189 67.0142414,450.001241 C67.0142414,446.681294 67.6586315,444.16044 68.947431,442.438603 C70.2362306,440.716767 71.9941268,439.855862 74.2211724,439.855862 C76.448218,439.855862 78.2061142,440.716767 79.4949138,442.438603 C80.7837133,444.16044 81.4281034,446.681294 81.4281034,450.001241 C81.4281034,453.321189 80.7837133,455.867819 79.4949138,457.641207 C78.2061142,459.414595 76.448218,460.301276 74.2211724,460.301276 Z M74.2211724,442.268483 C73.5819278,442.268483 72.9942441,442.412826 72.4581034,442.701517 C71.9219628,442.990208 71.458002,443.443859 71.0662069,444.062483 C70.6744118,444.681107 70.3702597,445.48015 70.1537414,446.459638 C69.9372231,447.439126 69.8289655,448.619648 69.8289655,450.001241 C69.8289655,451.382834 69.9372231,452.568512 70.1537414,453.55831 C70.3702597,454.548108 70.6744118,455.362617 71.0662069,456.001862 C71.458002,456.641107 71.9219628,457.110223 72.4581034,457.409224 C72.9942441,457.708226 73.5819278,457.857724 74.2211724,457.857724 C74.860417,457.857724 75.4481008,457.708226 75.9842414,457.409224 C76.520382,457.110223 76.9843429,456.641107 77.3761379,456.001862 C77.767933,455.362617 78.0720851,454.548108 78.2886034,453.55831 C78.5051218,452.568512 78.6133793,451.382834 78.6133793,450.001241 C78.6133793,448.619648 78.5051218,447.439126 78.2886034,446.459638 C78.0720851,445.48015 77.767933,444.681107 77.3761379,444.062483 C76.9843429,443.443859 76.520382,442.990208 75.9842414,442.701517 C75.4481008,442.412826 74.860417,442.268483 74.2211724,442.268483 Z M74.2211724,451.980828 C73.664411,451.980828 73.1849848,451.790088 72.7828793,451.408603 C72.3807739,451.027119 72.1797241,450.506452 72.1797241,449.846586 C72.1797241,449.186721 72.3807739,448.666054 72.7828793,448.284569 C73.1849848,447.903084 73.664411,447.712345 74.2211724,447.712345 C74.7779338,447.712345 75.2573601,447.903084 75.6594655,448.284569 C76.061571,448.666054 76.2626207,449.186721 76.2626207,449.846586 C76.2626207,450.506452 76.061571,451.027119 75.6594655,451.408603 C75.2573601,451.790088 74.7779338,451.980828 74.2211724,451.980828 Z M86.2224138,444.804828 L88.7278276,444.804828 L88.9752759,447.248379 L89.099,447.248379 C89.8619693,446.464789 90.6867887,445.799779 91.5734828,445.253328 C92.4601768,444.706877 93.491201,444.433655 94.6665862,444.433655 C96.4399744,444.433655 97.7390648,444.959478 98.5638966,446.011138 C99.3887283,447.062798 99.8011379,448.578404 99.8011379,450.558 L99.8011379,459.930103 L96.7389655,459.930103 L96.7389655,450.960103 C96.7389655,449.640373 96.50183,448.666055 96.0275517,448.037121 C95.5532735,447.408187 94.7387644,447.093724 93.584,447.093724 C92.7797891,447.093724 92.0580722,447.294774 91.4188276,447.696879 C90.779583,448.098985 90.0681763,448.702134 89.2845862,449.506345 L89.2845862,459.930103 L86.2224138,459.930103 L86.2224138,444.804828 Z M104.750103,463.579966 C104.935691,463.641828 105.141895,463.693379 105.368724,463.734621 C105.595553,463.775862 105.822378,463.796483 106.049207,463.796483 C107.059626,463.796483 107.874135,463.523261 108.492759,462.97681 C109.111382,462.430359 109.595964,461.734418 109.946517,460.888966 L110.348621,459.83731 L103.451,444.804828 L106.513172,444.804828 L109.915586,452.692241 C110.204277,453.372728 110.492964,454.094444 110.781655,454.857414 C111.070346,455.620383 111.369343,456.373031 111.678655,457.115379 L111.802379,457.115379 C112.049829,456.393652 112.307585,455.651314 112.575655,454.888345 C112.843725,454.125375 113.101482,453.393348 113.348931,452.692241 L116.349241,444.804828 L119.256759,444.804828 L112.792172,460.888966 C112.482861,461.693176 112.132312,462.425204 111.740517,463.085069 C111.348722,463.744934 110.889916,464.311998 110.364086,464.786276 C109.838256,465.260554 109.235107,465.626568 108.554621,465.884328 C107.874135,466.142087 107.090556,466.270966 106.203862,466.270966 C105.832688,466.270966 105.466674,466.24519 105.10581,466.193638 C104.744946,466.142086 104.420174,466.064759 104.131483,465.961655 L104.750103,463.579966 Z M122.288,444.804828 L124.638759,444.804828 L124.886207,446.784414 L124.979,446.784414 C125.329553,446.103928 125.757429,445.542019 126.262638,445.098672 C126.767847,444.655325 127.453478,444.433655 128.319552,444.433655 C129.82487,444.433655 130.763102,445.289405 131.134276,447.000931 C131.546692,446.237962 132.020963,445.619347 132.557103,445.145069 C133.093244,444.670791 133.78403,444.433655 134.629483,444.433655 C135.681143,444.433655 136.495652,444.84091 137.073034,445.655431 C137.650417,446.469952 137.939103,447.640165 137.939103,449.166103 L137.939103,459.930103 L135.031586,459.930103 L135.031586,449.413552 C135.031586,447.866992 134.557315,447.093724 133.608759,447.093724 C133.13448,447.093724 132.722071,447.263843 132.371517,447.604086 C132.020964,447.944329 131.670416,448.464996 131.319862,449.166103 L131.319862,459.930103 L128.907241,459.930103 L128.907241,449.413552 C128.907241,447.866992 128.41235,447.093724 127.422552,447.093724 C126.948273,447.093724 126.546174,447.263843 126.216241,447.604086 C125.886309,447.944329 125.546071,448.464996 125.195517,449.166103 L125.195517,459.930103 L122.288,459.930103 L122.288,444.804828 Z M155.569793,457.42469 L155.569793,459.930103 L142.083862,459.930103 L142.083862,457.42469 L147.558655,457.42469 L147.558655,443.69131 L143.382966,443.69131 L143.382966,441.773586 C144.455247,441.60862 145.383168,441.39726 146.166759,441.1395 C146.950349,440.88174 147.672066,440.577588 148.331931,440.227034 L150.620828,440.227034 L150.620828,457.42469 L155.569793,457.42469 Z M163.85931,447.27931 L159.714552,447.27931 L159.714552,444.959483 L163.983034,444.804828 L164.385138,440.629138 L166.921483,440.629138 L166.921483,444.804828 L174.066552,444.804828 L174.066552,447.27931 L166.921483,447.27931 L166.921483,453.960414 C166.921483,455.259524 167.184394,456.228686 167.710224,456.867931 C168.236054,457.507176 169.189752,457.826793 170.571345,457.826793 C171.23121,457.826793 171.84467,457.770087 172.411741,457.656672 C172.978813,457.543258 173.520101,457.383449 174.035621,457.177241 L174.654241,459.435207 C173.973755,459.662036 173.221108,459.863085 172.396276,460.038362 C171.571444,460.213639 170.726004,460.301276 169.859931,460.301276 C168.746408,460.301276 167.803021,460.146622 167.029741,459.83731 C166.256462,459.527998 165.637847,459.094968 165.173879,458.538207 C164.709911,457.981445 164.374829,457.316435 164.168621,456.543155 C163.962413,455.769875 163.85931,454.90897 163.85931,453.960414 L163.85931,447.27931 Z M178.984586,463.579966 C179.170173,463.641828 179.376378,463.693379 179.603207,463.734621 C179.830036,463.775862 180.056861,463.796483 180.28369,463.796483 C181.294109,463.796483 182.108618,463.523261 182.727241,462.97681 C183.345865,462.430359 183.830447,461.734418 184.181,460.888966 L184.583103,459.83731 L177.685483,444.804828 L180.747655,444.804828 L184.150069,452.692241 C184.43876,453.372728 184.727447,454.094444 185.016138,454.857414 C185.304829,455.620383 185.603826,456.373031 185.913138,457.115379 L186.036862,457.115379 C186.284312,456.393652 186.542068,455.651314 186.810138,454.888345 C187.078208,454.125375 187.335964,453.393348 187.583414,452.692241 L190.583724,444.804828 L193.491241,444.804828 L187.026655,460.888966 C186.717343,461.693176 186.366795,462.425204 185.975,463.085069 C185.583205,463.744934 185.124399,464.311998 184.598569,464.786276 C184.072739,465.260554 183.46959,465.626568 182.789103,465.884328 C182.108617,466.142087 181.325039,466.270966 180.438345,466.270966 C180.067171,466.270966 179.701157,466.24519 179.340293,466.193638 C178.979429,466.142086 178.654657,466.064759 178.365966,465.961655 L178.984586,463.579966 Z M215.761586,438 L223.772724,438 L223.772724,454.826483 C223.772724,455.878143 224.035635,456.635946 224.561466,457.099914 C225.087296,457.563882 225.772927,457.795862 226.618379,457.795862 C227.030795,457.795862 227.453515,457.744311 227.886552,457.641207 C228.319588,457.538103 228.80417,457.373139 229.34031,457.14631 L230.082655,459.435207 C229.732102,459.558932 229.397019,459.672344 229.077397,459.775448 C228.757774,459.878552 228.433002,459.966189 228.103069,460.038362 C227.773136,460.110535 227.427743,460.172396 227.066879,460.223948 C226.706015,460.2755 226.309071,460.301276 225.876034,460.301276 C224.185129,460.301276 222.901504,459.816695 222.025121,458.847517 C221.148737,457.87834 220.710552,456.476147 220.710552,454.640897 L220.710552,440.443552 L215.761586,440.443552 L215.761586,438 Z M241.248759,460.301276 C239.021713,460.301276 237.263817,459.414595 235.975017,457.641207 C234.686218,455.867819 234.041828,453.321189 234.041828,450.001241 C234.041828,446.681294 234.686218,444.16044 235.975017,442.438603 C237.263817,440.716767 239.021713,439.855862 241.248759,439.855862 C243.475804,439.855862 245.2337,440.716767 246.5225,442.438603 C247.8113,444.16044 248.45569,446.681294 248.45569,450.001241 C248.45569,453.321189 247.8113,455.867819 246.5225,457.641207 C245.2337,459.414595 243.475804,460.301276 241.248759,460.301276 Z M241.248759,442.268483 C240.609514,442.268483 240.02183,442.412826 239.48569,442.701517 C238.949549,442.990208 238.485588,443.443859 238.093793,444.062483 C237.701998,444.681107 237.397846,445.48015 237.181328,446.459638 C236.964809,447.439126 236.856552,448.619648 236.856552,450.001241 C236.856552,451.382834 236.964809,452.568512 237.181328,453.55831 C237.397846,454.548108 237.701998,455.362617 238.093793,456.001862 C238.485588,456.641107 238.949549,457.110223 239.48569,457.409224 C240.02183,457.708226 240.609514,457.857724 241.248759,457.857724 C241.888003,457.857724 242.475687,457.708226 243.011828,457.409224 C243.547968,457.110223 244.011929,456.641107 244.403724,456.001862 C244.795519,455.362617 245.099671,454.548108 245.31619,453.55831 C245.532708,452.568512 245.640966,451.382834 245.640966,450.001241 C245.640966,448.619648 245.532708,447.439126 245.31619,446.459638 C245.099671,445.48015 244.795519,444.681107 244.403724,444.062483 C244.011929,443.443859 243.547968,442.990208 243.011828,442.701517 C242.475687,442.412826 241.888003,442.268483 241.248759,442.268483 Z M241.248759,451.980828 C240.691997,451.980828 240.212571,451.790088 239.810466,451.408603 C239.40836,451.027119 239.20731,450.506452 239.20731,449.846586 C239.20731,449.186721 239.40836,448.666054 239.810466,448.284569 C240.212571,447.903084 240.691997,447.712345 241.248759,447.712345 C241.80552,447.712345 242.284946,447.903084 242.687052,448.284569 C243.089157,448.666054 243.290207,449.186721 243.290207,449.846586 C243.290207,450.506452 243.089157,451.027119 242.687052,451.408603 C242.284946,451.790088 241.80552,451.980828 241.248759,451.980828 Z M251.950897,444.804828 L255.044,444.804828 L258.229897,453.032483 C258.518588,453.795452 258.791809,454.5481 259.049569,455.290448 C259.307329,456.032797 259.57024,456.775134 259.83831,457.517483 L259.962034,457.517483 C260.230105,456.775134 260.487861,456.032797 260.73531,455.290448 C260.98276,454.5481 261.250826,453.795452 261.539517,453.032483 L264.725414,444.804828 L267.663862,444.804828 L261.601379,459.930103 L258.137103,459.930103 L251.950897,444.804828 Z M272.241655,455.537897 C272.901521,456.1359 273.679944,456.661722 274.576948,457.115379 C275.473953,457.569037 276.510132,457.795862 277.685517,457.795862 C278.324762,457.795862 278.912446,457.718535 279.448586,457.563879 C279.984727,457.409223 280.453843,457.187553 280.855948,456.898862 C281.258054,456.610171 281.572516,456.264778 281.799345,455.862672 C282.026174,455.460567 282.139586,455.001761 282.139586,454.486241 C282.139586,453.950101 282.015863,453.460364 281.768414,453.017017 C281.520964,452.57367 281.129175,452.192191 280.593034,451.872569 C280.056894,451.552947 279.350642,451.305501 278.474259,451.130224 C277.597875,450.954947 276.530765,450.86731 275.272897,450.86731 L275.272897,448.578414 C276.386419,448.578414 277.334962,448.490777 278.118552,448.3155 C278.902142,448.140223 279.541377,447.903088 280.036276,447.604086 C280.531175,447.305085 280.892033,446.949381 281.118862,446.536966 C281.345691,446.12455 281.459103,445.670899 281.459103,445.176 C281.459103,444.289306 281.11371,443.588209 280.422914,443.07269 C279.732117,442.55717 278.819661,442.299414 277.685517,442.299414 C276.798823,442.299414 275.968849,442.479843 275.195569,442.840707 C274.422289,443.201571 273.705727,443.670687 273.045862,444.248069 L271.437448,442.330345 C272.303522,441.608617 273.262374,441.015778 274.314034,440.55181 C275.365695,440.087843 276.530752,439.855862 277.809241,439.855862 C278.778419,439.855862 279.67541,439.969275 280.500241,440.196103 C281.325073,440.422932 282.03648,440.75286 282.634483,441.185897 C283.232486,441.618933 283.701602,442.155066 284.041845,442.79431 C284.382088,443.433555 284.552207,444.155272 284.552207,444.959483 C284.552207,446.114247 284.175883,447.067945 283.423224,447.820603 C282.670565,448.573262 281.675627,449.155791 280.438379,449.568207 L280.438379,449.691931 C281.077624,449.836277 281.691083,450.052792 282.278776,450.341483 C282.866468,450.630174 283.376825,450.980722 283.809862,451.393138 C284.242899,451.805554 284.588292,452.28498 284.846052,452.831431 C285.103812,453.377882 285.23269,453.981031 285.23269,454.640897 C285.23269,455.527591 285.036795,456.321479 284.645,457.022586 C284.253205,457.723693 283.727383,458.316532 283.067517,458.801121 C282.407652,459.285709 281.629229,459.656878 280.732224,459.914638 C279.83522,460.172398 278.891833,460.301276 277.902034,460.301276 C276.190509,460.301276 274.747075,460.028054 273.57169,459.481603 C272.396304,458.935152 271.447762,458.280452 270.726034,457.517483 L272.241655,455.537897 Z M291.171448,455.970931 C292.037522,456.568934 292.944823,457.04836 293.893379,457.409224 C294.841936,457.770088 295.945132,457.950517 297.203,457.950517 C298.50211,457.950517 299.450652,457.754623 300.048655,457.362828 C300.646658,456.971033 300.945655,456.476141 300.945655,455.878138 C300.945655,455.321377 300.584797,454.836795 299.863069,454.424379 C299.141341,454.011963 297.945353,453.599554 296.275069,453.187138 C295.53272,453.001551 294.816159,452.774725 294.125362,452.506655 C293.434566,452.238585 292.831416,451.924122 292.315897,451.563259 C291.800377,451.202395 291.387967,450.800295 291.078655,450.356948 C290.769343,449.913601 290.61469,449.413555 290.61469,448.856793 C290.61469,448.217549 290.753878,447.629865 291.032259,447.093724 C291.310639,446.557584 291.728204,446.093623 292.284966,445.701828 C292.841727,445.310033 293.522203,445.000725 294.326414,444.773897 C295.130625,444.547068 296.058546,444.433655 297.110207,444.433655 C298.306213,444.433655 299.445495,444.634705 300.528086,445.03681 C301.610678,445.438916 302.533444,445.897722 303.296414,446.413241 L301.873586,448.330966 C301.1931,447.877308 300.461073,447.506139 299.677483,447.217448 C298.893893,446.928757 298.048453,446.784414 297.141138,446.784414 C295.862649,446.784414 294.970813,446.969998 294.465603,447.341172 C293.960394,447.712347 293.707793,448.165997 293.707793,448.702138 C293.707793,449.27952 294.120203,449.753791 294.945034,450.124966 C295.769866,450.49614 296.831821,450.846688 298.130931,451.176621 C300.028044,451.650899 301.486943,452.223117 302.507672,452.893293 C303.528402,453.563469 304.038759,454.496546 304.038759,455.692552 C304.038759,456.331796 303.884105,456.92979 303.574793,457.486552 C303.265481,458.043313 302.816986,458.53305 302.229293,458.955776 C301.641601,459.378502 300.919884,459.70843 300.064121,459.945569 C299.208358,460.182708 298.22373,460.301276 297.110207,460.301276 C295.666751,460.301276 294.305799,460.069295 293.02731,459.605328 C291.748821,459.14136 290.645625,458.589762 289.71769,457.950517 L291.171448,455.970931 Z M327.11331,452.382931 C327.11331,451.125063 327.340136,450.001246 327.793793,449.011448 C328.247451,448.02165 328.866065,447.186521 329.649655,446.506034 C330.433245,445.825548 331.335391,445.310036 332.356121,444.959483 C333.37685,444.608929 334.46458,444.433655 335.619345,444.433655 C336.856592,444.433655 337.939168,444.645015 338.867103,445.067741 C339.795039,445.490468 340.568307,446.000825 341.186931,446.598828 L339.702241,448.547483 C339.104238,448.052584 338.485624,447.66595 337.846379,447.387569 C337.207135,447.109188 336.516349,446.97 335.774,446.97 C334.969789,446.97 334.227452,447.098878 333.546966,447.356638 C332.866479,447.614398 332.283951,447.980411 331.799362,448.45469 C331.314773,448.928968 330.93845,449.501186 330.670379,450.171362 C330.402309,450.841538 330.268276,451.57872 330.268276,452.382931 C330.268276,453.187142 330.397154,453.924324 330.654914,454.5945 C330.912674,455.264676 331.283842,455.836894 331.768431,456.311172 C332.25302,456.785451 332.825238,457.151464 333.485103,457.409224 C334.144969,457.666984 334.876996,457.795862 335.681207,457.795862 C336.609143,457.795862 337.444272,457.620588 338.186621,457.270034 C338.928969,456.919481 339.599135,456.496761 340.197138,456.001862 L341.496241,457.981448 C340.630168,458.723797 339.681626,459.296015 338.650586,459.698121 C337.619547,460.100226 336.547281,460.301276 335.433759,460.301276 C334.258373,460.301276 333.160333,460.126002 332.139603,459.775448 C331.118874,459.424895 330.237349,458.909383 329.495,458.228897 C328.752651,457.54841 328.170123,456.718436 327.747397,455.738948 C327.32467,454.759461 327.11331,453.640799 327.11331,452.382931 Z M352.600483,460.301276 C350.373437,460.301276 348.615541,459.414595 347.326741,457.641207 C346.037942,455.867819 345.393552,453.321189 345.393552,450.001241 C345.393552,446.681294 346.037942,444.16044 347.326741,442.438603 C348.615541,440.716767 350.373437,439.855862 352.600483,439.855862 C354.827528,439.855862 356.585425,440.716767 357.874224,442.438603 C359.163024,444.16044 359.807414,446.681294 359.807414,450.001241 C359.807414,453.321189 359.163024,455.867819 357.874224,457.641207 C356.585425,459.414595 354.827528,460.301276 352.600483,460.301276 Z M352.600483,442.268483 C351.961238,442.268483 351.373554,442.412826 350.837414,442.701517 C350.301273,442.990208 349.837312,443.443859 349.445517,444.062483 C349.053722,444.681107 348.74957,445.48015 348.533052,446.459638 C348.316533,447.439126 348.208276,448.619648 348.208276,450.001241 C348.208276,451.382834 348.316533,452.568512 348.533052,453.55831 C348.74957,454.548108 349.053722,455.362617 349.445517,456.001862 C349.837312,456.641107 350.301273,457.110223 350.837414,457.409224 C351.373554,457.708226 351.961238,457.857724 352.600483,457.857724 C353.239727,457.857724 353.827411,457.708226 354.363552,457.409224 C354.899692,457.110223 355.363653,456.641107 355.755448,456.001862 C356.147243,455.362617 356.451395,454.548108 356.667914,453.55831 C356.884432,452.568512 356.99269,451.382834 356.99269,450.001241 C356.99269,448.619648 356.884432,447.439126 356.667914,446.459638 C356.451395,445.48015 356.147243,444.681107 355.755448,444.062483 C355.363653,443.443859 354.899692,442.990208 354.363552,442.701517 C353.827411,442.412826 353.239727,442.268483 352.600483,442.268483 Z M352.600483,451.980828 C352.043721,451.980828 351.564295,451.790088 351.16219,451.408603 C350.760084,451.027119 350.559034,450.506452 350.559034,449.846586 C350.559034,449.186721 350.760084,448.666054 351.16219,448.284569 C351.564295,447.903084 352.043721,447.712345 352.600483,447.712345 C353.157244,447.712345 353.63667,447.903084 354.038776,448.284569 C354.440881,448.666054 354.641931,449.186721 354.641931,449.846586 C354.641931,450.506452 354.440881,451.027119 354.038776,451.408603 C353.63667,451.790088 353.157244,451.980828 352.600483,451.980828 Z M363.550069,444.804828 L365.900828,444.804828 L366.148276,446.784414 L366.241069,446.784414 C366.591622,446.103928 367.019497,445.542019 367.524707,445.098672 C368.029916,444.655325 368.715547,444.433655 369.581621,444.433655 C371.086939,444.433655 372.025171,445.289405 372.396345,447.000931 C372.808761,446.237962 373.283032,445.619347 373.819172,445.145069 C374.355313,444.670791 375.046099,444.433655 375.891552,444.433655 C376.943212,444.433655 377.757721,444.84091 378.335103,445.655431 C378.912486,446.469952 379.201172,447.640165 379.201172,449.166103 L379.201172,459.930103 L376.293655,459.930103 L376.293655,449.413552 C376.293655,447.866992 375.819384,447.093724 374.870828,447.093724 C374.396549,447.093724 373.98414,447.263843 373.633586,447.604086 C373.283033,447.944329 372.932485,448.464996 372.581931,449.166103 L372.581931,459.930103 L370.16931,459.930103 L370.16931,449.413552 C370.16931,447.866992 369.674419,447.093724 368.684621,447.093724 C368.210342,447.093724 367.808243,447.263843 367.47831,447.604086 C367.148378,447.944329 366.80814,448.464996 366.457586,449.166103 L366.457586,459.930103 L363.550069,459.930103 L363.550069,444.804828 Z M386.222517,461.167345 L386.222517,466.11631 L383.160345,466.11631 L383.160345,444.804828 L385.665759,444.804828 L385.913207,446.66069 L386.006,446.66069 C386.686486,446.000824 387.470065,445.464692 388.356759,445.052276 C389.243453,444.63986 390.140444,444.433655 391.047759,444.433655 C392.037557,444.433655 392.919082,444.614084 393.692362,444.974948 C394.465642,445.335812 395.115187,445.851324 395.641017,446.5215 C396.166847,447.191676 396.568947,448.00103 396.847328,448.949586 C397.125708,449.898143 397.264897,450.960098 397.264897,452.135483 C397.264897,453.434593 397.079312,454.58934 396.708138,455.599759 C396.336964,456.610177 395.836917,457.460772 395.207983,458.151569 C394.579049,458.842366 393.852177,459.373343 393.027345,459.744517 C392.202513,460.115692 391.346763,460.301276 390.460069,460.301276 C389.758962,460.301276 389.026935,460.141467 388.263966,459.821845 C387.500996,459.502223 386.78959,459.043417 386.129724,458.445414 L386.222517,461.167345 Z M386.222517,456.187448 C386.861762,456.76483 387.511307,457.172085 388.171172,457.409224 C388.831038,457.646363 389.398101,457.764931 389.872379,457.764931 C391.089006,457.764931 392.09941,457.285505 392.903621,456.326638 C393.707832,455.367771 394.109931,453.981044 394.109931,452.166414 C394.109931,450.578613 393.800624,449.320763 393.182,448.392828 C392.563376,447.464892 391.573593,447.000931 390.212621,447.000931 C389.593997,447.000931 388.944452,447.16074 388.263966,447.480362 C387.583479,447.799984 386.903003,448.320652 386.222517,449.042379 L386.222517,456.187448 Z M410.163138,452.259207 L410.163138,446.877207 C410.183759,446.320445 410.204379,445.706986 410.225,445.03681 C410.245621,444.366635 410.276552,443.742865 410.317793,443.165483 L410.163138,443.165483 C409.853826,443.681003 409.523898,444.186204 409.173345,444.681103 L408.12169,446.165793 L403.389241,452.259207 L410.163138,452.259207 Z M415.978172,454.671828 L413.039724,454.671828 L413.039724,459.930103 L410.163138,459.930103 L410.163138,454.671828 L400.172414,454.671828 L400.172414,452.599448 L409.606379,440.196103 L413.039724,440.196103 L413.039724,452.259207 L415.978172,452.259207 L415.978172,454.671828 Z M420.277586,444.804828 L422.783,444.804828 L423.030448,447.248379 L423.154172,447.248379 C423.917142,446.464789 424.741961,445.799779 425.628655,445.253328 C426.515349,444.706877 427.546373,444.433655 428.721759,444.433655 C430.495147,444.433655 431.794237,444.959478 432.619069,446.011138 C433.443901,447.062798 433.85631,448.578404 433.85631,450.558 L433.85631,459.930103 L430.794138,459.930103 L430.794138,450.960103 C430.794138,449.640373 430.557002,448.666055 430.082724,448.037121 C429.608446,447.408187 428.793937,447.093724 427.639172,447.093724 C426.834961,447.093724 426.113245,447.294774 425.474,447.696879 C424.834755,448.098985 424.123349,448.702134 423.339759,449.506345 L423.339759,459.930103 L420.277586,459.930103 L420.277586,444.804828 Z M438.805276,463.579966 C438.990863,463.641828 439.197068,463.693379 439.423897,463.734621 C439.650725,463.775862 439.877551,463.796483 440.104379,463.796483 C441.114798,463.796483 441.929307,463.523261 442.547931,462.97681 C443.166555,462.430359 443.651136,461.734418 444.00169,460.888966 L444.403793,459.83731 L437.506172,444.804828 L440.568345,444.804828 L443.970759,452.692241 C444.25945,453.372728 444.548136,454.094444 444.836828,454.857414 C445.125519,455.620383 445.424516,456.373031 445.733828,457.115379 L445.857552,457.115379 C446.105001,456.393652 446.362757,455.651314 446.630828,454.888345 C446.898898,454.125375 447.156654,453.393348 447.404103,452.692241 L450.404414,444.804828 L453.311931,444.804828 L446.847345,460.888966 C446.538033,461.693176 446.187485,462.425204 445.79569,463.085069 C445.403895,463.744934 444.945089,464.311998 444.419259,464.786276 C443.893428,465.260554 443.290279,465.626568 442.609793,465.884328 C441.929307,466.142087 441.145729,466.270966 440.259034,466.270966 C439.88786,466.270966 439.521847,466.24519 439.160983,466.193638 C438.800119,466.142086 438.475346,466.064759 438.186655,465.961655 L438.805276,463.579966 Z" id="4n0nym1ty-l0v3s-c0mp" fill="#50E3C2"></path>
                <g id="Group">
                    <mask id="mask-2" fill="white">
                        <use xlink:href="#path-1"></use>
                    </mask>
                    <g id="container" fill-rule="nonzero"></g>
                    <g id="people" mask="url(#mask-2)">
                        <g transform="translate(19.931034, 35.689655)">
                            <path d="M399.330581,209.37931 L380.282372,205.622035 C379.237408,206.477018 378.448499,203.73175 377.915645,197.386231 C377.116363,187.867952 372.110727,192.407229 366.638541,180.7942 C361.166356,169.18117 358.763005,142.433756 385.51363,145.360063 C399.888747,146.932587 428.399002,178.008703 402.854634,187.870634 C399.485195,189.171475 398.310511,196.341034 399.330581,209.37931 Z" id="Path-11-Copy-3" fill="#7D4698"></path>
                            <path d="M363.293252,285.517059 L349.265146,286.116151 L342.982711,267.638417 L327.372427,265.11068 L325.058512,199.861886 L353.956642,200.848216 L429.748167,201.640655 L427.434251,266.889449 L421.335411,269.085038 L417.501624,237.774721 L405.458496,285.517059 L363.293252,285.517059 Z" id="Combined-Shape" fill="#420C5D" transform="translate(377.403339, 242.989019) scale(-1, 1) rotate(-2.000000) translate(-377.403339, -242.989019) "></path>
                            <path d="M54.9121343,208.635941 C58.9393018,195.802664 59.4614304,188.357312 56.4785201,186.299884 C33.8645029,170.702132 68.892103,145.952456 83.2747166,147.595018 C110.039292,150.651659 101.474766,176.90897 93.4379301,187.317832 C85.4010937,197.726695 81.5759776,192.058767 78.582798,201.415168 C76.5873448,207.652768 75.1795861,210.226353 74.3595219,209.135922 L54.9121343,208.635941 Z" id="Path-11-Copy-3" fill="#7D4698" transform="translate(75.241379, 178.448276) scale(-1, 1) rotate(-13.000000) translate(-75.241379, -178.448276) "></path>
                            <path d="M47.7005418,283.93969 L47.1862225,283.93969 L34.311368,259.659692 L31.3093073,267.468249 L25.2104675,265.267393 L22.8965517,199.862069 L51.7946826,200.850764 L127.586207,201.645105 L123.775184,309.488799 L117.676344,311.689655 L113.842558,280.304226 L103.296536,285.722725 L47.7005418,285.722725 L47.7005418,283.93969 Z" id="Combined-Shape" fill="#7D4698" transform="translate(75.241379, 255.775862) scale(-1, 1) rotate(-2.000000) translate(-75.241379, -255.775862) "></path>
                            <path d="M280.946617,213.423152 C284.973785,201.083463 285.495913,193.924471 282.513003,191.946175 C259.898986,176.948337 294.926586,153.150571 309.309199,154.729958 C336.073775,157.669035 327.509249,182.916449 319.472413,192.924971 C311.435576,202.933493 307.61046,197.483562 304.617281,206.480102 C302.621828,212.477795 301.214069,214.952395 300.394005,213.903903 L280.946617,213.423152 Z" id="Path-11-Copy-3" fill="#7D4698" transform="translate(301.275862, 184.396552) scale(-1, 1) rotate(-13.000000) translate(-301.275862, -184.396552) "></path>
                            <path d="M283.807674,290.714094 L278.541088,290.714094 L265.752786,266.631086 L254.987472,289.954006 L248.931034,287.762665 L254.420292,207 L287.982998,208.151325 L363.137931,208.941078 L360.840103,274.063609 L354.783666,276.25495 L350.147629,268.572165 L339.017135,292.655172 L283.807674,292.655172 L283.807674,290.714094 Z" id="Combined-Shape" fill="#7D4698" transform="translate(306.034483, 249.827586) scale(-1, 1) rotate(-2.000000) translate(-306.034483, -249.827586) "></path>
                            <path d="M376.021493,289.532492 C379.981436,276.699215 380.494849,269.253863 377.561732,267.196436 C355.325202,251.598684 389.768099,226.849008 403.910629,228.49157 C430.228434,231.54821 423.437143,262.880326 415.534463,273.289189 C407.631782,283.698051 402.240247,272.955318 399.297031,282.311719 C397.334887,288.54932 395.950628,291.122905 395.144253,290.032473 L376.021493,289.532492 Z" id="Path-11-Copy-3" fill="#7D4698" transform="translate(396.448276, 259.344828) rotate(-21.000000) translate(-396.448276, -259.344828) "></path>
                            <path d="M335.597094,366.964925 L335.082774,366.964925 L323.039646,317.896411 L319.205859,350.076459 L313.107019,347.819881 L310.793103,280.758621 L339.691234,281.772348 L415.482759,282.586799 L413.168843,349.64806 L407.070003,351.904638 L403.236216,319.72459 L391.193088,368.793103 L335.597094,368.793103 L335.597094,366.964925 Z" id="Combined-Shape" fill="#420C5D" transform="translate(363.137931, 324.775862) scale(-1, 1) rotate(-2.000000) translate(-363.137931, -324.775862) "></path>
                            <path d="M271.429376,263.38867 C275.456543,251.04898 275.978672,243.889988 272.995761,241.911692 C250.381744,226.913854 285.409344,203.116088 299.791958,204.695475 C326.556534,207.634552 317.992008,232.881967 309.955171,242.890488 C301.918335,252.89901 298.093219,247.449079 295.100039,256.445619 C293.104586,262.443312 291.696828,264.917912 290.876763,263.869421 L271.429376,263.38867 Z" id="Path-11-Copy-3" fill="#420C5D" transform="translate(291.758621, 234.362069) scale(-1, 1) rotate(-13.000000) translate(-291.758621, -234.362069) "></path>
                            <path d="M264.232231,350.161522 L263.659467,350.161522 L248.995656,332.440278 L245.695987,339.843105 L238.904097,337.403561 L236.609606,256.965517 L268.791615,258.061439 L353.195813,258.941927 L350.618952,331.440587 L343.827062,333.88013 L337.888091,346.191953 L326.145952,352.137931 L264.232231,352.137931 L264.232231,350.161522 Z" id="Combined-Shape" fill="#7D4698" transform="translate(294.902709, 304.551724) scale(-1, 1) rotate(-2.000000) translate(-294.902709, -304.551724) "></path>
                            <path d="M159.336191,270.498009 C163.180305,257.664733 163.678701,250.219381 160.831377,248.161953 C139.24527,232.564201 172.680706,207.814525 186.409565,209.457087 C211.957569,212.513728 203.78234,238.771038 196.110814,249.179901 C188.439289,259.588764 184.788041,253.920836 181.930915,263.277237 C180.026165,269.514837 178.682395,272.088422 177.899606,270.99799 L159.336191,270.498009 Z" id="Path-11-Copy-3" fill="#7D4698" transform="translate(178.741379, 240.310345) scale(-1, 1) rotate(-13.000000) translate(-178.741379, -240.310345) "></path>
                            <path d="M191.91011,350.341328 L191.405132,350.341328 L178.778607,319.709907 L137.103448,73.7586207 L149.710958,78.2729672 L196.126071,266.622264 L270.344828,267.420538 L268.072939,333.323551 L262.084871,335.541154 L258.320717,303.916904 L246.496325,352.137931 L191.91011,352.137931 L191.91011,350.341328 Z" id="Combined-Shape" fill="#7D4698" transform="translate(203.724138, 212.948276) scale(-1, 1) rotate(-2.000000) translate(-203.724138, -212.948276) "></path>
                            <path d="M197.670755,330.009359 C201.697922,317.66967 202.220051,310.510678 199.237141,308.532382 C176.623124,293.534543 211.650724,269.736778 226.033337,271.316165 C252.797913,274.255242 244.233387,299.502656 236.196551,309.511178 C228.159714,319.5197 224.334598,314.069769 221.341419,323.066308 C219.345966,329.064001 217.938207,331.538602 217.118143,330.49011 L197.670755,330.009359 Z" id="Path-11-Copy-3" fill="#141414" transform="translate(218.000000, 300.982759) scale(-1, 1) rotate(-13.000000) translate(-218.000000, -300.982759) "></path>
                            <path d="M40.3706737,282.423152 C44.214788,270.083463 44.7131835,262.924471 41.8658601,260.946175 C20.2797527,245.948337 53.7151892,222.150571 67.4440477,223.729958 C92.9920518,226.669035 84.8168224,251.916449 77.1452969,261.924971 C69.4737713,271.933493 65.8225241,266.483562 62.965398,275.480102 C61.0606473,281.477795 59.7168777,283.952395 58.9340891,282.903903 L40.3706737,282.423152 Z" id="Path-11-Copy-3" fill="#7D4698" transform="translate(59.775862, 253.396552) scale(-1, 1) rotate(-13.000000) translate(-59.775862, -253.396552) "></path>
                            <path d="M26.2838672,369.716307 L25.7812371,369.716307 L14.0118161,316.379709 L10.2651608,351.358846 L4.304931,348.905987 L2.04360421,276.011595 L45.483821,277.706518 L104.353949,278.403214 L102.221541,354.929148 L96.3443481,354.979962 L92.2196637,321.755113 L80.6163162,371.184009 L26.2838672,371.184009 L26.2838672,369.716307 Z" id="Combined-Shape" fill="#420C5D" transform="translate(53.198777, 323.597802) scale(-1, 1) rotate(-2.000000) translate(-53.198777, -323.597802) "></path>
                            <path d="M285.970836,341.848729 C290.181057,328.521864 290.726919,320.790152 287.608421,318.653593 C263.966494,302.455928 300.586258,276.754341 315.622627,278.460079 C343.603774,281.634282 334.649952,308.90149 326.247805,319.710693 C317.845658,330.519897 313.846673,324.633971 310.717439,334.350234 C308.631284,340.827742 307.159536,343.500311 306.302196,342.36794 L285.970836,341.848729 Z" id="Path-11-Copy-3" fill="#420C5D" transform="translate(307.224138, 310.500000) rotate(-13.000000) translate(-307.224138, -310.500000) "></path>
                            <path d="M275.689458,414.600542 L275.175139,414.600542 L263.13201,366.858204 L259.298224,398.168521 L253.199384,395.972932 L250.885468,330.724138 L279.783599,331.710467 L355.575123,332.502906 L353.261207,397.7517 L347.162368,399.94729 L343.328581,368.636973 L331.285452,416.37931 L275.689458,416.37931 L275.689458,414.600542 Z" id="Combined-Shape" fill="#7D4698" transform="translate(303.230296, 373.551724) scale(-1, 1) rotate(-2.000000) translate(-303.230296, -373.551724) "></path>
                            <path d="M119.153514,325.222147 C123.180681,312.388871 123.70281,304.943518 120.719899,302.886091 C98.1058822,287.288339 133.133482,262.538663 147.516096,264.181225 C174.280672,267.237866 165.716146,293.495176 157.679309,303.904039 C149.642473,314.312902 145.817357,308.644974 142.824177,318.001375 C140.828724,324.238975 139.420965,326.81256 138.600901,325.722128 L119.153514,325.222147 Z" id="Path-11-Copy-3" fill="#420C5D" transform="translate(139.482759, 295.034483) scale(-1, 1) rotate(-13.000000) translate(-139.482759, -295.034483) "></path>
                            <path d="M169.375885,402.145946 L169.376688,402.662001 L113.780693,402.662001 L101.737565,354.919664 L97.9037781,386.229981 L91.8049383,384.034391 L89.4910225,318.785598 L116.75591,319.716182 L116.75591,317.434296 L196.641575,318.269542 L194.32766,383.518336 L188.22882,385.713925 L184.72284,344.660049 L172.351905,402.145946 L169.375885,402.145946 Z" id="Combined-Shape" fill="#7D4698" transform="translate(143.066299, 360.048149) scale(-1, 1) rotate(-2.000000) translate(-143.066299, -360.048149) "></path>
                            <path d="M192.714071,416.782211 L192.152995,416.782211 L178.332949,383.311048 L174.832724,398.52441 L168.179444,396.084867 L165.655172,323.586207 L197.180406,324.682128 L279.862069,325.562616 L277.337797,398.061276 L270.684517,400.50082 L265.671885,389.626409 L253.364246,418.758621 L192.714071,418.758621 L192.714071,416.782211 Z" id="Combined-Shape" fill="#420C5D" transform="translate(222.758621, 371.172414) scale(-1, 1) rotate(-2.000000) translate(-222.758621, -371.172414) "></path>
                            <path d="M219.189655,250.12059 C223.053559,248.339047 227.631048,247.448276 232.922125,247.448276 C251.525766,247.448276 260.827586,266.482759 260.827586,304.551724 L232.202011,304.551724 L232.922125,280.484876 L205.457186,280.484876 L206.1773,304.551724 L177.551724,304.551724 C177.551724,266.482759 186.853545,247.448276 205.457186,247.448276 C210.748262,247.448276 215.325752,248.339047 219.189655,250.12059 Z M360.032389,183.206897 C349.9652,151.365586 358.748181,136.344757 386.381332,138.144411 C414.014482,139.944065 425.844559,153.718781 421.871561,179.468558 L408.338717,181.528603 L407.632262,161.399768 L392.996311,182.06164 L360.032389,183.206897 Z M108.560312,165.598137 L33.7870708,166.306637 C34.3209136,145.660081 41.1917561,134.734493 54.399598,133.529875 C74.211361,131.722947 54.2066974,114.01132 80.3396226,112.862097 C97.7615728,112.095949 107.168469,129.674629 108.560312,165.598137 Z M277.056046,172.7772 C268.252369,155.338923 269.10255,142.596526 279.606587,134.55001 C295.362644,122.480236 316.372031,131.143742 320.345251,111.575111 C324.318471,92.0064795 368.143253,105.419613 363.784425,127.385677 C359.425597,149.351742 346.230135,156.549418 330.10886,171.3843 C319.361344,181.274221 301.677073,181.738521 277.056046,172.7772 Z M136.575596,233.154757 C114.243424,229.550079 81.7453923,236.538492 100.914719,203.231729 C120.084046,169.924966 143.623186,196.478089 139.869945,167.268347 C136.116704,138.058605 194.111415,90.8089317 196.164038,126.665743 C198.21666,162.522554 236.27269,141.626077 227.10197,186.760207 C217.931251,231.894337 193.843174,210.184649 172.989229,220.872246 C152.135283,231.559843 158.907767,236.759436 136.575596,233.154757 Z" id="hair" fill="#420C5D"></path>
                            <path d="M365.62101,247.685543 C365.88695,221.95773 378.277463,210.050661 402.792551,211.964337 C427.307639,213.878013 433.317208,225.094514 420.821259,245.613841 L365.62101,247.685543 Z M329.478867,231.874203 L259.605406,229.940934 C260.731757,210.784227 267.482516,200.875347 279.857682,200.214294 C298.420433,199.222715 280.270831,182.080018 304.718712,181.918334 C321.0173,181.810544 329.270685,198.4625 329.478867,231.874203 Z M87.1393138,260.468819 C71.2113354,263.373034 59.2058746,262.972512 51.1229315,259.267253 C43.0399883,255.561993 37.7204936,248.020672 35.1644472,236.643291 L34.3598173,258.708007 L19.5764151,256.472031 C15.2771472,228.253736 28.2257472,213.135736 58.4222151,211.118031 C88.6186831,209.100325 98.1910493,225.550588 87.1393138,260.468819 Z M277.049616,316.254889 C267.333719,285.913676 276.038074,271.528209 303.16268,273.09849 C330.287285,274.668771 341.830418,287.754603 337.792076,312.355984 L324.492624,314.394755 L323.906085,295.183997 L318.273675,314.9374 L277.049616,316.254889 Z M174.46497,288.632771 L105.211344,286.925103 C94.9861548,265.518983 96.0078583,254.466002 108.276455,253.76616 C126.679349,252.716398 125.848266,239.053814 150.081953,238.814169 C166.237745,238.654406 174.365417,255.260607 174.46497,288.632771 Z" id="hair-substract" fill="#000000"></path>
                            <path d="M257.105939,30.2450134 L257.070202,30.2299919 L257.080179,30.2367793 L253.782425,33.227291 C253.529935,35.8092391 253.3639,37.3488483 253.284319,37.8461187 C250.741682,42.3956042 248.406736,43.7604498 245.244174,46.3419579 C239.661178,50.8914434 234.046713,53.7147241 234.728525,66.1959126 C235.03875,72.3442172 238.486362,79.9613558 245.742422,83.4657595 C246.979551,84.060518 248.153688,84.5781065 249.321728,85.0176638 C251.363189,83.5980896 253.2579,82.5653887 254.972932,81.439399 C253.203093,80.606759 251.791816,79.5655213 250.603347,78.0088598 C250.603347,77.9522395 250.237191,77.6350702 250.237191,77.6350702 C248.136574,74.9120206 245.994816,70.9462047 245.346238,66.7284767 C244.996055,65.025791 245.160135,63.5111996 245.560003,61.7502142 C247.260341,54.8286299 248.984396,51.9304414 252.200663,48.4516555 C253.051074,47.8276333 253.823075,46.83438 254.623149,45.8317699 C255.487998,44.6382502 256.994549,41.5134133 258.069977,38.657103 C258.08364,38.5969541 258.097573,38.5366333 258.111749,38.4761538 C255.424309,37.0323118 253.228357,35.2709819 253.782425,33.227291 L257.080179,30.2367793 L257.105939,30.2450134 Z M259.806216,31.1081761 L264.768928,32.6945413 C263.156179,37.9823433 265.702225,39.9503207 267.252824,40.8134231 C270.724824,42.7195276 274.076195,44.6869851 276.743131,47.083914 C281.767566,51.6333995 284.62069,58.0286762 284.62069,64.7931112 C284.62069,71.4951532 281.518442,77.9502232 276.310443,82.2553363 C271.411881,86.3134774 264.651446,88.0344828 258.077199,88.0344828 C253.983701,88.0344828 250.325514,87.8504236 246.355266,86.5586297 C237.30027,83.5455704 230.539836,75.8608395 229.981274,66.6370827 C229.484862,59.4436962 231.097611,53.9713151 236.741708,48.2519619 C239.655146,45.2389026 243.462807,41.1053701 247.493369,38.3392829 C249.478493,36.9863959 250.427786,35.2430331 246.396437,28.0496466 L249.753054,25.252363 L254.33651,28.3703464 C253.064325,17.3533178 250.197793,16.6217535 265.235445,4.75862069 L265.235707,4.75966057 C261.018958,9.61591136 264.998987,12.4859868 262.641935,17.3422376 C266.612182,11.8074635 275.842876,9.90187902 281.858562,7.87150864 C273.927928,14.8806875 267.659173,24.152978 259.806216,31.1081761 Z M262.92468,52.5244604 C261.774586,49.0217439 260.003175,45.871618 258.163758,42.985649 C257.812239,44.9138715 257.365376,46.7991585 256.749443,47.831472 C255.952515,49.1481325 255.750924,49.7750337 254.850659,50.456156 C252.212787,54.1388706 251.341564,54.6810814 249.691079,61.3771444 C249.340896,62.7960092 248.76371,65.014275 249.06404,66.4321802 C249.964304,70.5179542 250.664187,73.3273737 252.248846,76.2759446 C252.248846,76.2759446 252.556437,76.5679227 252.556437,76.6814031 C253.834696,78.3952417 254.042291,78.9653739 256.361713,80.4677678 C258.18793,79.0917056 259.771944,77.4246788 261.065923,74.7692151 C259.60671,72.6364714 258.249582,69.8343167 257.795262,66.879851 C257.511068,65.498027 257.644229,64.2688519 257.968743,62.8397144 C259.270273,57.5415663 260.588924,55.1481877 262.92468,52.5244604 Z M263.822486,56.0128864 C262.849001,57.4592532 262.231012,58.846387 261.321341,62.5369475 C261.037148,63.6884352 260.56873,65.4886811 260.812464,66.6393899 C261.269229,68.7123764 261.662433,70.3805099 262.207268,71.92449 C263.069157,69.3107521 263.745487,65.9616403 264.213581,61.546487 C264.298095,59.6116443 264.148574,57.7701725 263.822486,56.0128864 Z" id="onion" fill="#50E3C2" transform="translate(257.258621, 46.396552) rotate(-9.000000) translate(-257.258621, -46.396552) "></path>
                            <rect id="finger" fill="#7D4698" x="272.724138" y="69" width="21.4137931" height="7.13793103"></rect>
                            <rect id="finger" fill="#7D4698" x="267.965517" y="59.4827586" width="28.5517241" height="7.13793103"></rect>
                            <rect id="finger" fill="#7D4698" x="270.344828" y="78.5172414" width="19.0344828" height="7.13793103"></rect>
                        </g>
                    </g>
                </g>
            </g>
        </g>
    </g>
</svg>