<?xml version="1.0" encoding="UTF-8"?>
<svg width="613px" height="350px" viewBox="0 0 613 350" version="1.1" xmlns="http://www.w3.org/2000/svg" xmlns:xlink="http://www.w3.org/1999/xlink">
    <!-- Generator: sketchtool 52.4 (67378) - http://www.bohemiancoding.com/sketch -->
    <title>59DCF220-ACE3-43CF-A8E0-C1DFFCA18BED@1.5x</title>
    <desc>Created with sketchtool.</desc>
    <g id="Page-1" stroke="none" stroke-width="1" fill="none" fill-rule="evenodd">
        <g id="donate.tpo.org---Iteration" transform="translate(-816.000000, -70.000000)">
            <g id="Hero">
                <g id="artwork" transform="translate(1123.000000, 275.000000) scale(-1, 1) translate(-1123.000000, -275.000000) translate(813.000000, 66.000000)">
                    <g id="Group-23-Copy-5" transform="translate(505.000000, 74.000000)">
                        <g id="Group-2-Copy-2" transform="translate(56.348148, 128.441748) scale(-1, 1) rotate(-2.000000) translate(-56.348148, -128.441748) translate(4.348148, 25.941748)">
                            <path d="M35.8212974,64.1902606 C39.7225678,51.6891259 40.2295616,44.4368403 37.3422789,42.4334038 C15.4532326,27.2449658 49.3679512,3.13027094 63.2911811,4.72727574 C89.2008905,7.69913866 80.904321,33.2769419 73.1218555,43.4173847 C65.33939,53.5578274 61.6375239,48.0377384 58.7379542,57.151995 C56.8049077,63.2281661 55.4415513,65.7352657 54.6478849,64.6732936 L35.8212974,64.1902606 Z" id="Path-11-Copy-3" fill="#55246D" transform="translate(55.509676, 34.781047) rotate(-11.000000) translate(-55.509676, -34.781047) "></path>
                            <path d="M24.8323685,201.727383 L24.3265111,201.727383 L12.4815212,119.478881 L8.71080938,173.418986 L2.71231027,169.636516 L0.436463994,57.2286238 L28.8591508,58.9278306 L103.403722,60.2930117 L101.127875,172.700904 L95.1293761,176.483374 L91.3586643,122.543269 L79.5136744,204.791771 L24.8323685,204.791771 L24.8323685,201.727383 Z" id="Combined-Shape" fill="#2E2798"></path>
                        </g>
                        <path d="M85.7624649,49.3501369 L21.1988594,70.9396812 C15.8436936,52.9412106 18.7162435,41.568607 29.8165092,36.8218706 C46.4669077,29.701766 24.1497249,20.0024263 46.4603827,11.6775464 C61.3341546,6.12762642 74.4348487,18.6851566 85.7624649,49.3501369 Z" id="Path-19" fill="#2E2798" transform="translate(52.173595, 40.670721) scale(-1, 1) rotate(20.000000) translate(-52.173595, -40.670721) "></path>
                    </g>
                    <g id="Group-23-Copy-11" transform="translate(0.000000, 166.000000)">
                        <g id="Group-2-Copy-2" transform="translate(56.362187, 127.638132) scale(-1, 1) rotate(-2.000000) translate(-56.362187, -127.638132) translate(4.362187, 25.138132)">
                            <path d="M35.8920178,64.189094 C39.7981834,51.6880298 40.3048819,44.4354948 37.4121133,42.431489 C15.4814768,27.2387353 49.4527482,3.12853815 63.401098,4.72791764 C89.357553,7.70419961 81.0504063,33.2818067 73.2557261,43.421429 C65.4610459,53.5610513 61.7516575,48.0400968 58.8484201,57.1542929 C56.9129286,63.2304236 55.5475533,65.737413 54.7522942,64.675261 L35.8920178,64.189094 Z" id="Path-11-Copy-3" fill="#55246D" transform="translate(55.609284, 34.782273) rotate(-11.000000) translate(-55.609284, -34.782273) "></path>
                            <path d="M24.8774978,201.730168 L24.370721,201.730168 L12.5042045,119.480531 L8.72664002,173.42138 L2.7172395,169.638858 L0.437257204,57.2294139 L28.9115982,58.9286441 L103.591643,60.2938441 L101.311661,172.703288 L95.3022601,176.48581 L91.5246955,122.544961 L79.6581791,204.794599 L24.8774978,204.794599 L24.8774978,201.730168 Z" id="Combined-Shape" fill="#42D3BC"></path>
                        </g>
                        <path d="M85.3544074,48.6576394 L20.6740076,70.2680221 C15.3147749,52.2689634 18.1954784,40.8942139 29.3161182,36.1437737 C45.9970779,29.0181133 23.6443981,19.3239676 45.995661,10.9917856 C60.8965029,5.43699753 74.0160851,17.9922821 85.3544074,48.6576394 Z" id="Path-19" fill="#2E2798" transform="translate(51.707096, 39.990984) scale(-1, 1) rotate(20.000000) translate(-51.707096, -39.990984) "></path>
                    </g>
                    <g id="Group-23-Copy-7" transform="translate(449.000000, 107.000000)">
                        <g id="Group-2-Copy-2" transform="translate(54.963640, 79.812539) scale(-1, 1) rotate(-2.000000) translate(-54.963640, -79.812539) translate(2.963640, 1.812539)">
                            <path d="M35.8989775,76.6397301 C39.8008103,64.1422795 40.3052562,56.8913132 37.4123152,54.8868313 C15.4803721,39.6904679 49.4393634,15.5951695 63.3861234,17.1984201 C89.3396199,20.1819056 81.0413851,45.7520246 73.2509058,55.8873283 C65.4604266,66.022632 61.7499311,60.5016435 58.849861,69.6131884 C56.9164808,75.6875517 55.5520608,78.1936418 54.7566009,77.1314588 L35.8989775,76.6397301 Z" id="Path-11-Copy-3" fill="#420C5D" transform="translate(55.601964, 47.245458) rotate(-11.000000) translate(-55.601964, -47.245458) "></path>
                            <path d="M24.8752559,153.640615 L24.3685248,153.640615 L12.5030777,105.853502 L8.72585359,137.193183 L2.71699463,134.995535 L0.4372178,69.6855475 L28.9089927,70.6728018 L103.582307,71.4659842 L101.302531,136.775971 L95.2936716,138.97362 L91.5164476,107.633939 L79.6510005,155.421051 L24.8752559,155.421051 L24.8752559,153.640615 Z" id="Combined-Shape" fill="#42D3BC"></path>
                            <path d="M23.8661526,44.6857613 L55.4680487,50.2677843 L73.5570663,33.66018 L70.1765274,52.8658267 L83.4703281,53.6517687 C92.4359909,30.0692483 83.9509572,14.631553 58.015227,7.33868285 C32.0794967,0.0458126581 20.696472,12.4948388 23.8661526,44.6857613 Z" id="Path-17" fill="#7D4698" transform="translate(55.136710, 29.484951) scale(-1, 1) rotate(-10.000000) translate(-55.136710, -29.484951) "></path>
                        </g>
                    </g>
                    <g id="Group-23-Copy-8" transform="translate(189.000000, 103.000000)">
                        <g id="Group-2-Copy-2" transform="translate(56.188944, 89.816249) scale(-1, 1) rotate(-2.000000) translate(-56.188944, -89.816249) translate(3.688944, 1.816249)">
                            <path d="M36.1017614,96.5132318 C40.0215729,83.9798072 40.5269927,76.7075457 37.6180207,74.6964473 C15.5645438,59.4499233 49.7003022,35.2916262 63.7224152,36.9029674 C89.8161359,39.9015089 81.4794231,65.545156 73.6494962,75.7085213 C65.8195694,85.8718867 62.0878056,80.3336986 59.1743301,89.4714579 C57.2320131,95.5632974 55.8608595,98.0764613 55.0608692,97.0109496 L36.1017614,96.5132318 Z" id="Path-11-Copy-3" fill="#420C5D" transform="translate(55.901600, 67.037595) rotate(-11.000000) translate(-55.901600, -67.037595) "></path>
                            <path d="M25.0101309,173.740953 L24.5006523,173.740953 L12.5708701,125.814924 L8.77316565,157.24571 L2.73172633,155.041673 L0.439588419,89.5418308 L29.0657389,90.531955 L104.143936,91.3274432 L101.851799,156.827285 L95.8103592,159.031322 L92.0126548,127.600537 L80.0828726,175.526566 L25.0101309,175.526566 L25.0101309,173.740953 Z" id="Combined-Shape" fill="#7D4698"></path>
                            <path d="M91.8935109,48.9382881 L26.870061,70.6733826 C21.50079,52.6254727 24.4064459,41.2140291 35.5870286,36.4390517 C52.3579025,29.2765858 29.9026143,19.5742115 52.3732262,11.1963484 C67.3536342,5.61110627 80.5270624,18.1917529 91.8935109,48.9382881 Z" id="Path-19" fill="#2E2798" transform="translate(58.075321, 40.290906) rotate(20.000000) translate(-58.075321, -40.290906) "></path>
                        </g>
                    </g>
                    <g id="Group-24" transform="translate(293.000000, 90.000000)">
                        <g id="Group-22">
                            <g id="Group-2-Copy-4" transform="translate(56.255141, 90.803656) scale(-1, 1) rotate(-2.000000) translate(-56.255141, -90.803656) translate(3.755141, 1.803656)">
                                <path d="M36.1152327,99.3255347 C40.0297886,86.8873928 40.5322964,79.6697051 37.6227561,77.6724716 C15.5649707,62.5310592 49.6885329,38.5671203 63.7101925,40.172059 C89.8030696,43.1586859 81.4771344,68.607255 73.6518308,78.6914831 C65.8265273,88.7757112 62.0928659,83.2774266 59.1832264,92.3456955 C57.2434668,98.3912081 55.8734124,100.885031 55.0730634,99.8271632 L36.1152327,99.3255347 Z" id="Path-11-Copy-3" fill="#2E2798" transform="translate(55.898559, 70.079441) rotate(-11.000000) translate(-55.898559, -70.079441) "></path>
                                <path d="M25.0101309,175.974975 L24.5006523,175.974975 L12.5708701,128.410965 L8.77316565,159.604331 L2.73172633,157.416943 L0.439588419,92.4118676 L29.0657389,93.3945128 L104.143936,94.1839921 L101.851799,159.189068 L95.8103592,161.376456 L92.0126548,130.18309 L80.0828726,177.747099 L25.0101309,177.747099 L25.0101309,175.974975 Z" id="Combined-Shape" fill="#5058AD"></path>
                                <path d="M32.4583644,38.6997267 C25.931787,36.8250835 21.1608099,30.8605783 21.1608099,23.7925008 C21.1608099,15.2212583 28.1768537,8.27289343 36.8315822,8.27289343 C45.4863108,8.27289343 52.5023546,15.2212583 52.5023546,23.7925008 C52.5023546,24.8976479 52.3857153,25.9758152 52.1639632,27.0155874 C54.3720099,25.9893813 56.3948165,25.1878247 58.2323831,24.6109176 C68.0240652,21.5368026 95.5674242,30.1857505 57.1454655,54.8317155 C31.5308263,71.2623588 23.0276871,66.0731585 31.6360478,39.2641145 C31.9115672,39.0742706 32.1856728,38.8861413 32.4583644,38.6997267 Z" id="Combined-Shape-Copy-2" fill="#42D3BC" transform="translate(49.063994, 36.234913) rotate(20.000000) translate(-49.063994, -36.234913) "></path>
                            </g>
                        </g>
                    </g>
                    <g id="Group-23-Copy-3" transform="translate(507.000000, 190.000000)">
                        <g id="Group-2-Copy-2" transform="translate(56.601972, 114.169847) scale(-1, 1) rotate(-2.000000) translate(-56.601972, -114.169847) translate(4.101972, 20.169847)">
                            <path d="M36.1863761,64.3114811 C40.1056092,51.78552 40.6077034,44.5165744 37.6926587,42.5046442 C15.5931432,27.251814 49.7727136,3.12314988 63.8194533,4.74186389 C89.9590019,7.7541254 81.6229372,33.3823202 73.7856175,43.5369653 C65.9482978,53.6916104 62.2070433,48.1535861 59.2938954,57.285872 C57.3517968,63.3740626 55.9797701,65.8853942 55.1778152,64.819867 L36.1863761,64.3114811 Z" id="Path-11-Copy-3" fill="#7D4698" transform="translate(55.997894, 34.861178) rotate(-11.000000) translate(-55.997894, -34.861178) "></path>
                            <path d="M25.0551942,184.947192 L24.5447976,184.947192 L12.5935203,112.319571 L7.88289407,185.781914 L1.83056927,182.441893 L0.44038047,57.3509332 L29.1181096,58.8513782 L104.331583,60.0568695 L102.035315,159.316036 L95.9829905,162.656058 L92.1784434,115.025507 L80.2271661,187.653128 L25.0551942,187.653128 L25.0551942,184.947192 Z" id="Combined-Shape" fill="#A9FEF8"></path>
                        </g>
                        <path d="M55.7165892,2.63158118 C59.6235395,0.877193727 64.2520263,0 69.6020496,0 C88.4129503,0 97.8184006,18.7443485 97.8184006,56.2330455 L68.8739128,56.2330455 L69.6020496,32.5330377 L41.8311288,32.5330377 L42.5592655,56.2330455 L13.6147777,56.2330455 C13.6147777,18.7443485 23.0202281,0 41.8311288,0 C47.181152,0 51.8096388,0.877193727 55.7165892,2.63158118 Z" id="Combined-Shape" fill="#420C5D"></path>
                    </g>
                    <g id="Group-23-Copy-12" transform="translate(82.000000, 161.000000)">
                        <g id="Group-2-Copy-2" transform="translate(56.601972, 114.169847) scale(-1, 1) rotate(-2.000000) translate(-56.601972, -114.169847) translate(4.101972, 20.169847)">
                            <path d="M36.1863761,64.3114811 C40.1056092,51.78552 40.6077034,44.5165744 37.6926587,42.5046442 C15.5931432,27.251814 49.7727136,3.12314988 63.8194533,4.74186389 C89.9590019,7.7541254 81.6229372,33.3823202 73.7856175,43.5369653 C65.9482978,53.6916104 62.2070433,48.1535861 59.2938954,57.285872 C57.3517968,63.3740626 55.9797701,65.8853942 55.1778152,64.819867 L36.1863761,64.3114811 Z" id="Path-11-Copy-3" fill="#7D4698" transform="translate(55.997894, 34.861178) rotate(-11.000000) translate(-55.997894, -34.861178) "></path>
                            <path d="M25.0551942,184.947192 L24.5447976,184.947192 L12.5935203,112.319571 L7.88289407,185.781914 L1.83056927,182.441893 L0.44038047,57.3509332 L29.1181096,58.8513782 L104.331583,60.0568695 L102.035315,159.316036 L95.9829905,162.656058 L92.1784434,115.025507 L80.2271661,187.653128 L25.0551942,187.653128 L25.0551942,184.947192 Z" id="Combined-Shape" fill="#A9FEF8"></path>
                        </g>
                        <path d="M55.7165892,2.63158118 C59.6235395,0.877193727 64.2520263,0 69.6020496,0 C88.4129503,0 97.8184006,18.7443485 97.8184006,56.2330455 L68.8739128,56.2330455 L69.6020496,32.5330377 L41.8311288,32.5330377 L42.5592655,56.2330455 L13.6147777,56.2330455 C13.6147777,18.7443485 23.0202281,0 41.8311288,0 C47.181152,0 51.8096388,0.877193727 55.7165892,2.63158118 Z" id="Combined-Shape" fill="#420C5D"></path>
                    </g>
                    <g id="Group-23-Copy" transform="translate(371.000000, 78.000000)">
                        <g id="Group-2-Copy-2" transform="translate(54.614088, 137.885799) scale(-1, 1) rotate(-2.000000) translate(-54.614088, -137.885799) translate(2.614088, 66.385799)">
                            <path d="M35.8356178,64.1531094 C39.7386129,51.6592193 40.2458855,44.4111544 37.3574358,42.4089147 C15.4595418,27.2295494 49.3884319,3.12856117 63.3173679,4.72449387 C89.2376959,7.6943617 80.9374684,33.2573453 73.1517063,43.3919585 C65.3659441,53.5265716 61.6626103,48.0097367 58.7617605,57.118712 C56.8278606,63.1913622 55.4639196,65.6970147 54.6699373,64.6356696 L35.8356178,64.1531094 Z" id="Path-11-Copy-3" fill="#A9FEF8" transform="translate(55.532455, 34.760802) rotate(-11.000000) translate(-55.532455, -34.760802) "></path>
                            <path d="M24.8425253,141.121832 L24.3364609,141.121832 L12.4866263,93.3510113 L8.71437221,124.680008 L2.71341964,122.483109 L0.436642513,57.1953876 L28.8709546,58.1823054 L103.446015,58.9752173 L101.169238,124.262939 L95.1682852,126.459838 L91.3960312,95.130841 L79.5461965,142.901662 L24.8425253,142.901662 L24.8425253,141.121832 Z" id="Combined-Shape" fill="#7D4698"></path>
                        </g>
                        <path d="M24.6833561,29.2724984 C37.9883586,15.3144778 50.1848218,11.8216104 61.2727458,18.7938961 C77.9046317,29.2523246 76.9462099,51.505195 96.5827071,48.5975257 C116.219204,45.6898564 118.573394,90.5452943 96.5655186,93.9023511 C74.5576433,97.2594078 63.3485919,87.5239802 44.0086673,77.6570881 C31.1153841,71.07916 24.6736138,54.9509634 24.6833561,29.2724984 Z" id="Path-3" fill="#2E2798" transform="translate(68.443187, 54.944117) rotate(-70.000000) translate(-68.443187, -54.944117) "></path>
                    </g>
                    <g id="Group-23-Copy-2" transform="translate(433.000000, 200.000000)">
                        <g id="Group-2-Copy-2" transform="translate(54.795826, 87.114546) scale(-1, 1) rotate(-2.000000) translate(-54.795826, -87.114546) translate(2.795826, 14.114546)">
                            <path d="M35.0923015,66.7066247 C38.9814313,54.1464449 39.4791186,46.8575055 36.5853633,44.8398066 C14.6472472,29.543242 48.5725572,5.3507103 62.5159246,6.97496537 C88.463108,9.99753825 81.8038159,40.6661634 74.0252468,50.8481909 C66.2466777,61.0302183 60.9196169,50.5062012 58.0288273,59.6634306 C56.1016343,65.7682502 54.7399639,68.2863973 53.9438162,67.217872 L35.0923015,66.7066247 Z" id="Path-11-Copy-3" fill="#7D4698" transform="translate(55.187099, 37.176913) scale(-1, 1) rotate(-19.000000) translate(-55.187099, -37.176913) "></path>
                            <path d="M24.8752559,144.17724 L24.3685248,144.17724 L12.5030777,96.1536243 L8.72585359,127.648409 L2.71699463,125.439884 L0.4372178,59.8066714 L28.9089927,60.7988117 L103.582307,61.5959197 L101.302531,127.229132 L95.2936716,129.437657 L91.5164476,97.9428726 L79.6510005,145.966488 L24.8752559,145.966488 L24.8752559,144.17724 Z" id="Combined-Shape" fill="#42D3BC"></path>
                        </g>
                        <path d="M20.1156416,35.6470241 L74.1904238,43.0920556 C89.8593993,25.3866075 85.9284876,13.5104044 62.3976887,7.46344617 C38.8668898,1.41648797 24.7728741,10.8110139 20.1156416,35.6470241 Z" id="Path-17" fill="#5058AD" transform="translate(51.850447, 24.389744) rotate(-10.000000) translate(-51.850447, -24.389744) "></path>
                    </g>
                    <g id="Group-23-Copy-10" transform="translate(363.000000, 168.000000)">
                        <g id="Group-2-Copy-2" transform="translate(54.750448, 96.891493) scale(-1, 1) rotate(-2.000000) translate(-54.750448, -96.891493) translate(2.750448, 25.391493)">
                            <path d="M35.9043237,64.0405307 C39.8040692,51.5679656 40.307358,44.3311594 37.4141902,42.3301123 C15.4805279,27.1597886 49.4346835,3.11665172 63.3812678,4.71899518 C89.3344375,7.7007928 81.0404829,33.2199457 73.2518384,43.3343357 C65.463194,53.4487258 61.7519432,47.9378713 58.8533965,57.0312641 C56.921032,63.093526 55.5570485,65.5945339 54.7614458,64.5342876 L35.9043237,64.0405307 Z" id="Path-11-Copy-3" fill="#50E3C2" transform="translate(55.600755, 34.706925) rotate(-11.000000) translate(-55.600755, -34.706925) "></path>
                            <path d="M24.8752559,140.891501 L24.3685248,140.891501 L12.5030777,93.1986491 L8.72585359,124.476513 L2.71699463,122.283199 L0.4372178,57.1020366 L28.9089927,58.0873435 L103.582307,58.8789614 L101.302531,124.060124 L95.2936716,126.253437 L91.5164476,94.9755739 L79.6510005,142.668426 L24.8752559,142.668426 L24.8752559,140.891501 Z" id="Combined-Shape" fill="#A9FEF8"></path>
                        </g>
                        <path d="M92.8295381,49.2031697 L28.1564785,70.8224066 C22.8133935,52.8624718 25.7019461,41.507527 36.8221366,36.7575721 C53.5024222,29.6326398 31.1657556,19.9748477 53.5151607,11.6412828 C68.4147641,6.08557287 81.5195565,18.6062018 92.8295381,49.2031697 Z" id="Path-19" fill="#2E2798" transform="translate(59.192452, 40.591520) rotate(20.000000) translate(-59.192452, -40.591520) "></path>
                    </g>
                    <g id="Group-21" transform="translate(223.000000, 65.000000)">
                        <g id="Group-2-Copy-3" transform="translate(103.786494, 140.916899) scale(-1, 1) rotate(-2.000000) translate(-103.786494, -140.916899) translate(36.786494, 2.416899)">
                            <path d="M70.0527866,194.897685 C73.9316108,182.383455 74.4360383,175.123677 71.5660691,173.118349 C49.8082795,157.915575 83.522599,133.774061 97.3628413,135.371887 C123.118119,138.345277 114.869347,163.949891 107.132581,174.101229 C99.395814,184.252566 95.7163299,178.727015 92.833454,187.850822 C90.9115368,193.93336 89.5561405,196.44312 88.7672652,195.380102 L70.0527866,194.897685 Z" id="Path-11-Copy-3" fill="#42D3BC" transform="translate(89.626313, 165.456869) rotate(-11.000000) translate(-89.626313, -165.456869) "></path>
                            <path d="M54.9312326,275.050779 L54.4283926,275.050779 L41.8553201,244.656105 L0.356586957,0.605746658 L12.9107244,5.08520228 L59.1293467,191.97877 L133.033909,192.770874 L130.771638,258.16453 L124.80892,260.364994 L121.0607,228.985164 L109.286366,276.833497 L54.9312326,276.833497 L54.9312326,275.050779 Z" id="Combined-Shape" fill="#7D4698"></path>
                        </g>
                        <path d="M25.9647891,129.020196 C4.96517701,107.261018 4.97427469,94.535694 25.9920822,90.8442255 C57.5187935,85.3070228 53.1574039,114.094694 69.8023514,96.3275814 C86.447299,78.5604685 147.652611,90.0428473 125.852902,110.249179 C104.053193,130.455511 137.760649,143.323449 104.031085,161.378047 C81.5447095,173.414446 66.7435151,168.40738 59.6275024,146.356848 L25.9647891,129.020196 Z" id="Path-2-Copy" fill="#A9FEF8" transform="translate(70.356497, 127.646645) rotate(-50.000000) translate(-70.356497, -127.646645) "></path>
                    </g>
                    <g id="onion" transform="translate(385.694465, 46.224865) scale(-1, 1) rotate(-6.000000) translate(-385.694465, -46.224865) translate(356.194465, 3.224865)" fill="#42D3BC" fill-rule="nonzero">
                        <path d="M35.4175775,48.857701 C34.2855876,45.3773252 32.5420623,42.2472913 30.7316016,39.3797293 C30.3856161,41.2956534 29.9457877,43.1689157 29.3395502,44.1946451 C28.5551677,45.5029077 28.3567497,46.1258105 27.4706572,46.8025885 C24.8743109,50.4618144 24.016802,51.0005669 22.392299,57.6539216 C22.0476281,59.0637367 21.4795285,61.2678542 21.7751308,62.6767158 C22.6612234,66.7364303 23.3500888,69.5279309 24.9098022,72.4576955 C24.9098022,72.4576955 25.2125505,72.7478114 25.2125505,72.860568 C26.4706877,74.5634755 26.6750146,75.1299714 28.9579242,76.6227828 C30.7553931,75.2554973 32.3144709,73.599103 33.5880807,70.9605761 C32.1518381,68.8414353 30.8160746,66.0571531 30.368906,63.1215313 C30.0891864,61.7485207 30.2202506,60.5271855 30.5396568,59.1071632 C31.8206973,53.8428073 33.1185909,51.4646939 35.4175775,48.857701 Z M36.3012503,52.3238774 C35.3430894,53.7610192 34.7348292,55.1393056 33.8394783,58.8063274 C33.5597587,59.9504707 33.0987143,61.7392345 33.338612,62.8826039 C33.788186,64.9423687 34.1752006,66.5998626 34.7114586,68.133995 C35.55978,65.5369278 36.225463,62.2091771 36.6861887,57.8221841 C36.7693718,55.8996821 36.6222043,54.0699554 36.3012503,52.3238774 Z M30.6392972,35.0787913 C30.8438052,34.169899 31.1098759,33.2215141 31.3393116,32.279478 C28.4379882,31.2930249 26.7945265,30.4341684 26.4089266,29.7029086 C26.1472937,29.2067423 27.2326782,28.2098305 29.6650803,26.7121733 L29.6904341,26.7203549 L29.6552599,26.7054292 L29.6650803,26.7121733 L31.835078,28.8160171 C31.8408319,29.0402441 31.8354142,29.2689415 31.8206147,29.5012738 C30.401046,29.5755384 26.610579,29.1199012 26.8034247,29.7444049 C27.3526776,32.0048974 26.4175714,33.2965583 25.9289739,34.2729795 C23.4263633,38.7934478 21.1281739,40.1495883 18.0153972,42.7146312 C12.5202879,47.2350996 6.99420583,50.0403731 7.6652854,62.4419551 C7.9706266,68.5510452 11.3639662,76.1196008 18.5058015,79.601653 C19.7234561,80.192618 20.87911,80.7069053 22.0287626,81.1436591 C24.0380869,79.7331391 25.9029709,78.7070249 27.5910054,77.5882169 C25.8490268,76.7608875 24.4599663,75.7262909 23.2902061,74.179558 C23.2902061,74.1232989 22.9298142,73.8081525 22.9298142,73.8081525 C20.862265,71.1024708 18.7542223,67.1619494 18.1158546,62.9711225 C17.7711837,61.2792967 17.9326812,59.7743656 18.3262539,58.0246119 C19.9998254,51.1471743 21.6967402,48.2674708 24.8623772,44.810873 C25.6994012,44.1908309 26.4592493,43.2039126 27.2467283,42.2076973 C28.097963,41.02179 29.5807976,37.9168836 30.6392972,35.0787913 Z M32.3482049,27.5780124 L37.232793,29.1542594 C35.6454317,34.4083352 38.1513977,36.3637607 39.6775874,37.2213581 C43.0949311,39.1153052 46.3935453,41.070214 49.0184988,43.451855 C53.963839,47.9723234 56.7720489,54.3268103 56.7720489,61.048101 C56.7720489,67.7073966 53.7186368,74.1212954 48.5926214,78.3989501 C43.7711728,82.4312078 37.1171608,84.1412364 30.6464051,84.1412364 C26.6173467,84.1412364 23.0167467,83.9583512 19.1089987,82.6747965 C10.1965459,79.6809549 3.54253389,72.0452381 2.99276486,62.8803114 C2.50416732,55.7328051 4.0915286,50.2953275 9.64677687,44.612453 C12.5143515,41.6186114 16.2620727,37.511443 20.2291854,34.7629983 C22.1830594,33.4187401 23.1174086,31.6864967 19.1495216,24.5389904 L22.453298,21.7595482 L26.9646021,24.8576447 C25.7124432,13.910884 22.8910363,13.1839857 37.6919663,1.3965173 L37.6922244,1.39755055 C33.5418554,6.22282762 37.4592307,9.07459736 35.1392828,13.8998744 C39.0470308,8.4004018 48.1324157,6.50697134 54.0534023,4.4895509 C46.247612,11.4540244 40.0775396,20.6671751 32.3482043,27.5780122 Z" id="Combined-Shape" transform="translate(29.840713, 42.768877) rotate(-3.000000) translate(-29.840713, -42.768877) "></path>
                    </g>
                    <g id="Group-23-Copy-6" transform="translate(290.000000, 239.000000)">
                        <g id="Group-2-Copy-2" transform="translate(54.741380, 92.167466) scale(-1, 1) rotate(-2.000000) translate(-54.741380, -92.167466) translate(2.741380, 20.167466)">
                            <path d="M35.8825554,64.2637833 C39.7908008,51.748347 40.2988018,44.4877966 37.4065582,42.482132 C15.4799028,27.2768025 49.453745,3.13403993 63.4010416,4.73260944 C89.3555367,7.70738412 81.0441518,33.3144546 73.2480367,43.4665822 C65.4519217,53.6187099 61.7437478,48.0924044 58.8389972,57.2170889 C56.9024967,63.300212 55.5367361,65.8101902 54.7417152,64.7470237 L35.8825554,64.2637833 Z" id="Path-11-Copy-3" fill="#2E2798" transform="translate(55.605683, 34.820680) rotate(-11.000000) translate(-55.605683, -34.820680) "></path>
                            <path d="M24.8752559,141.365071 L24.3685248,141.365071 L12.5030777,93.5119121 L8.72585359,124.894908 L2.71699463,122.694222 L0.4372178,57.2939702 L28.9089927,58.282589 L103.582307,59.0768677 L101.302531,124.47712 L95.2936716,126.677806 L91.5164476,95.2948096 L79.6510005,143.147969 L24.8752559,143.147969 L24.8752559,141.365071 Z" id="Combined-Shape" fill="#50E3C2"></path>
                        </g>
                        <path d="M52.9763434,2.6289674 C56.8552353,0.876322467 61.4504818,0 66.7620829,0 C85.4378898,0 94.7757932,18.725731 94.7757932,56.1771929 L66.0391754,56.1771929 L66.7620829,32.5007247 L39.1906039,32.5007247 L39.9135114,56.1771929 L11.1768936,56.1771929 C11.1768936,18.725731 20.514797,0 39.1906039,0 C44.502205,0 49.0974515,0.876322467 52.9763434,2.6289674 Z" id="Combined-Shape" fill="#420C5D"></path>
                    </g>
                    <g id="Group-23-Copy-4" transform="translate(132.000000, 193.000000)">
                        <g id="Group-2-Copy-2" transform="translate(55.342352, 106.297683) scale(-1, 1) rotate(-2.000000) translate(-55.342352, -106.297683) translate(3.842352, 1.797683)">
                            <path d="M35.610391,82.5466625 C39.470061,70.0772996 39.9654618,62.8415274 37.0965935,60.839346 C15.3471506,45.6604226 48.9931879,21.6358407 62.8187534,23.2445395 C88.5467194,26.2381638 80.337511,51.7506172 72.6217647,61.8602437 C64.9060184,71.9698702 61.2245173,66.4578853 58.3556719,75.5489176 C56.4431083,81.6096058 55.0922432,84.1096989 54.3030766,83.0491969 L35.610391,82.5466625 Z" id="Path-11-Copy-3" fill="#42D3BC" transform="translate(55.116611, 53.226907) rotate(-11.000000) translate(-55.116611, -53.226907) "></path>
                            <path d="M24.6603127,205.656291 L24.1579602,205.656291 L12.3950406,131.637153 L8.65045487,180.180286 L2.69351751,176.776271 L0.43343987,75.6153375 L28.6591947,77.1445304 L102.687269,78.3731185 L99.8921122,194.962727 L93.9351748,198.366742 L90.7256684,134.394934 L78.9627488,208.414072 L24.6603127,208.414072 L24.6603127,205.656291 Z" id="Combined-Shape" fill="#420C5D"></path>
                            <path d="M11.826669,49.8521569 L46.8832045,56.105634 L66.9367645,37.5720833 L63.1995769,59.0161914 L77.9456043,59.9023344 C87.8749728,33.5743 78.4532943,16.3301361 49.6805686,8.1698428 C20.907843,0.00954948637 8.28987644,13.9036542 11.826669,49.8521569 Z" id="Path-17" fill="#55246D" transform="translate(46.506369, 32.903825) rotate(-10.000000) translate(-46.506369, -32.903825) "></path>
                        </g>
                    </g>
                    <g id="Group-23-Copy-7" transform="translate(370.000000, 258.000000)">
                        <g id="Group-2-Copy-2" transform="translate(54.963640, 79.812539) scale(-1, 1) rotate(-2.000000) translate(-54.963640, -79.812539) translate(2.963640, 1.812539)">
                            <path d="M35.8989775,76.6397301 C39.8008103,64.1422795 40.3052562,56.8913132 37.4123152,54.8868313 C15.4803721,39.6904679 49.4393634,15.5951695 63.3861234,17.1984201 C89.3396199,20.1819056 81.0413851,45.7520246 73.2509058,55.8873283 C65.4604266,66.022632 61.7499311,60.5016435 58.849861,69.6131884 C56.9164808,75.6875517 55.5520608,78.1936418 54.7566009,77.1314588 L35.8989775,76.6397301 Z" id="Path-11-Copy-3" fill="#55246D" transform="translate(55.601964, 47.245458) rotate(-11.000000) translate(-55.601964, -47.245458) "></path>
                            <path d="M24.8752559,153.640615 L24.3685248,153.640615 L12.5030777,105.853502 L8.72585359,137.193183 L2.71699463,134.995535 L0.4372178,69.6855475 L28.9089927,70.6728018 L103.582307,71.4659842 L101.302531,136.775971 L95.2936716,138.97362 L91.5164476,107.633939 L79.6510005,155.421051 L24.8752559,155.421051 L24.8752559,153.640615 Z" id="Combined-Shape" fill="#420C5D"></path>
                            <path d="M23.8661526,44.6857613 L55.4680487,50.2677843 L73.5570663,33.66018 L70.1765274,52.8658267 L83.4703281,53.6517687 C92.4359909,30.0692483 83.9509572,14.631553 58.015227,7.33868285 C32.0794967,0.0458126581 20.696472,12.4948388 23.8661526,44.6857613 Z" id="Path-17" fill="#7D4698" transform="translate(55.136710, 29.484951) scale(-1, 1) rotate(-10.000000) translate(-55.136710, -29.484951) "></path>
                        </g>
                    </g>
                    <g id="Group-23-Copy-9" transform="translate(474.000000, 244.000000)">
                        <g id="Group-2-Copy-2" transform="translate(54.786430, 93.460752) scale(-1, 1) rotate(-2.000000) translate(-54.786430, -93.460752) translate(2.786430, 20.960752)">
                            <path d="M35.0530534,66.0156524 C38.9535054,53.5871238 39.4572722,46.3759838 36.5643538,44.3822324 C14.6325821,29.2672185 48.5870776,5.30723748 62.5330127,6.90297672 C88.4849741,9.87248455 81.7988279,40.2173958 74.0097893,50.2963784 C66.2207507,60.3753611 60.9007805,49.9684822 58.0017208,59.0297729 C56.0690143,65.0706333 54.7049116,67.562849 53.9094125,66.50642 L35.0530534,66.0156524 Z" id="Path-11-Copy-3" fill="#55246D" transform="translate(55.182791, 36.784729) scale(-1, 1) rotate(-19.000000) translate(-55.182791, -36.784729) "></path>
                            <path d="M24.8752559,142.670229 L24.3685248,142.670229 L12.5030777,95.1485797 L8.72585359,126.314165 L2.71699463,124.128725 L0.4372178,59.1815429 L28.9089927,60.1633128 L103.582307,60.952089 L101.302531,125.899271 L95.2936716,128.084711 L91.5164476,96.9191258 L79.6510005,144.440775 L24.8752559,144.440775 L24.8752559,142.670229 Z" id="Combined-Shape" fill="#7D4698"></path>
                        </g>
                        <path d="M15.2294429,46.864359 L81.92566,56.8387658 C101.262505,33.0279984 96.4201515,17.0655739 67.3985995,8.95149223 C38.3770475,0.837410558 20.9873286,13.4750328 15.2294429,46.864359 Z" id="Path-17" fill="#2E2798" transform="translate(54.376651, 31.705378) rotate(-10.000000) translate(-54.376651, -31.705378) "></path>
                    </g>
                    <g id="Group-23-Copy-13" transform="translate(49.000000, 214.000000)">
                        <g id="Group-2-Copy-2" transform="translate(54.786430, 93.460752) scale(-1, 1) rotate(-2.000000) translate(-54.786430, -93.460752) translate(2.786430, 20.960752)">
                            <path d="M35.0530534,66.0156524 C38.9535054,53.5871238 39.4572722,46.3759838 36.5643538,44.3822324 C14.6325821,29.2672185 48.5870776,5.30723748 62.5330127,6.90297672 C88.4849741,9.87248455 81.7988279,40.2173958 74.0097893,50.2963784 C66.2207507,60.3753611 60.9007805,49.9684822 58.0017208,59.0297729 C56.0690143,65.0706333 54.7049116,67.562849 53.9094125,66.50642 L35.0530534,66.0156524 Z" id="Path-11-Copy-3" fill="#55246D" transform="translate(55.182791, 36.784729) scale(-1, 1) rotate(-19.000000) translate(-55.182791, -36.784729) "></path>
                            <path d="M24.8752559,142.670229 L24.3685248,142.670229 L12.5030777,95.1485797 L8.72585359,126.314165 L2.71699463,124.128725 L0.4372178,59.1815429 L28.9089927,60.1633128 L103.582307,60.952089 L101.302531,125.899271 L95.2936716,128.084711 L91.5164476,96.9191258 L79.6510005,144.440775 L24.8752559,144.440775 L24.8752559,142.670229 Z" id="Combined-Shape" fill="#7D4698"></path>
                        </g>
                        <path d="M15.2294429,46.864359 L81.92566,56.8387658 C101.262505,33.0279984 96.4201515,17.0655739 67.3985995,8.95149223 C38.3770475,0.837410558 20.9873286,13.4750328 15.2294429,46.864359 Z" id="Path-17" fill="#2E2798" transform="translate(54.376651, 31.705378) rotate(-10.000000) translate(-54.376651, -31.705378) "></path>
                    </g>
                    <g id="Group-23" transform="translate(215.000000, 238.000000)">
                        <g id="Group-2-Copy-2" transform="translate(54.747925, 104.034769) scale(-1, 1) rotate(-2.000000) translate(-54.747925, -104.034769) translate(2.747925, 32.034769)">
                            <path d="M35.8815044,64.431758 C39.7901608,51.8836374 40.2983898,44.6041783 37.4061914,42.5933807 C15.4798779,27.349137 49.4546688,3.14253741 63.4019981,4.74485115 C89.3565542,7.72659343 81.0443266,33.4005468 73.2478509,43.5793247 C65.4513752,53.7581027 61.7433507,48.217527 58.8383001,57.3660425 C56.9015997,63.4650529 55.5357532,65.9816034 54.7407606,64.915694 L35.8815044,64.431758 Z" id="Path-11-Copy-3" fill="#A9FEF8" transform="translate(55.605922, 34.911361) rotate(-11.000000) translate(-55.605922, -34.911361) "></path>
                            <path d="M24.8752559,141.73377 L24.3685248,141.73377 L12.5030777,93.7558035 L8.72585359,125.22065 L2.71699463,123.014225 L0.4372178,57.4434004 L28.9089927,58.4345977 L103.582307,59.2309479 L101.302531,124.801772 L95.2936716,127.008198 L91.5164476,95.543351 L79.6510005,143.521318 L24.8752559,143.521318 L24.8752559,141.73377 Z" id="Combined-Shape" fill="#42D3BC"></path>
                            <path d="" id="Path-2" stroke="#979797"></path>
                        </g>
                        <path d="M91.2175339,51.3613417 L26.5422805,73.0259291 C9.85687601,56.6925877 7.07386088,46.1441716 18.1932351,41.3806807 C34.8722963,34.2354443 29.4940562,21.8992964 51.8432227,13.5452668 C66.742667,7.97591371 79.8674374,20.581272 91.2175339,51.3613417 Z" id="Path-19" fill="#2E2798" transform="translate(51.370333, 42.645608) rotate(20.000000) translate(-51.370333, -42.645608) "></path>
                    </g>
                    <polygon id="Rectangle" fill="#7D4698" points="395 64 417 64 417 71 395 71"></polygon>
                    <polygon id="Rectangle-Copy" fill="#7D4698" points="391 54 418 54 418 61 391 61"></polygon>
                    <polygon id="Rectangle-Copy-2" fill="#7D4698" points="393 73 413 73 413 80 393 80"></polygon>
                </g>
            </g>
        </g>
    </g>
</svg>