<?xml version="1.0" encoding="UTF-8"?>
<svg width="366px" height="261px" viewBox="0 0 366 261" version="1.1" xmlns="http://www.w3.org/2000/svg" xmlns:xlink="http://www.w3.org/1999/xlink">
    <!-- Generator: Sketch 51.3 (57544) - http://www.bohemiancoding.com/sketch -->
    <title>4n0nym1ty l0v3s c0mp</title>
    <desc>Created with Sketch.</desc>
    <defs></defs>
    <g id="Page-1" stroke="none" stroke-width="1" fill="none" fill-rule="evenodd">
        <g id="company2" transform="translate(-67.000000, -71.000000)" fill="#50E3C2">
            <path d="M89.6341583,99.0691082 L89.6341583,85.4473351 C89.6800231,84.2548507 89.7258872,82.9591899 89.771752,81.560314 C89.8176168,80.161438 89.8864129,78.8657773 89.9781425,77.6732929 L89.6341583,77.6732929 C88.9461865,78.7281829 88.212361,79.7945232 87.4326596,80.8723456 C86.6529583,81.9501681 85.8962007,83.0165084 85.1623641,84.0713984 L73.2605119,99.0691082 L89.6341583,99.0691082 Z M101.811198,103.609699 L95.0003113,103.609699 L95.0003113,115.717942 L89.6341583,115.717942 L89.6341583,103.609699 L67,103.609699 L67,99.8258734 L88.94619,71.825562 L95.0003113,71.825562 L95.0003113,99.0691082 L101.811198,99.0691082 L101.811198,103.609699 Z M111.993129,82.2826807 L116.671314,82.2826807 L117.152892,87.9928179 L117.428079,87.9928179 C119.170941,86.1123617 121.051369,84.5529824 123.06942,83.3146332 C125.08747,82.076284 127.403607,81.4571187 130.0179,81.4571187 C134.008136,81.4571187 136.931972,82.5922551 138.789496,84.862562 C140.64702,87.1328689 141.575768,90.492414 141.575768,94.9412982 L141.575768,115.717942 L135.934427,115.717942 L135.934427,95.6980633 C135.934427,92.5333931 135.338194,90.1828582 134.14571,88.6463879 C132.953225,87.1099176 130.981069,86.3416939 128.229182,86.3416939 C127.220157,86.3416939 126.291409,86.4678202 125.44291,86.7200765 C124.594412,86.9723328 123.757392,87.3507116 122.931826,87.8552243 C122.10626,88.3597369 121.257774,88.9903682 120.386343,89.7471372 C119.514912,90.5039062 118.59763,91.38679 117.63447,92.3958153 L117.63447,115.717942 L111.993129,115.717942 L111.993129,82.2826807 Z M167.512174,116.543504 C162.604642,116.543504 158.752058,114.559882 155.954306,110.592578 C153.156554,106.625274 151.757699,100.972524 151.757699,93.6341583 C151.757699,86.2499279 153.156554,80.631576 155.954306,76.778934 C158.752058,72.9262921 162.604642,71 167.512174,71 C172.419706,71 176.27229,72.9262921 179.070042,76.778934 C181.867794,80.631576 183.266649,86.2499279 183.266649,93.6341583 C183.266649,100.972524 181.867794,106.625274 179.070042,110.592578 C176.27229,114.559882 172.419706,116.543504 167.512174,116.543504 Z M167.512174,75.540591 C165.998636,75.540591 164.599781,75.8845718 163.315567,76.5725435 C162.031353,77.2605153 160.919149,78.3497876 159.978921,79.8403931 C159.038693,81.3309987 158.316333,83.2114266 157.811821,85.4817335 C157.307308,87.7520404 157.055055,90.4694881 157.055055,93.6341583 C157.055055,99.9176339 158.029667,104.549908 159.978921,107.531119 C161.928174,110.51233 164.439234,112.002913 167.512174,112.002913 C170.585115,112.002913 173.096174,110.51233 175.045427,107.531119 C176.994681,104.549908 177.969293,99.9176339 177.969293,93.6341583 C177.969293,90.4694881 177.71704,87.7520404 177.212528,85.4817335 C176.708015,83.2114266 175.985656,81.3309987 175.045427,79.8403931 C174.105199,78.3497876 172.992995,77.2605153 171.708781,76.5725435 C170.424567,75.8845718 169.025712,75.540591 167.512174,75.540591 Z M167.512174,97.7619683 C166.365555,97.7619683 165.36801,97.3606575 164.519512,96.5580237 C163.671013,95.75539 163.24677,94.6202536 163.24677,93.1525805 C163.24677,91.7307721 163.671013,90.6185678 164.519512,89.815934 C165.36801,89.0133003 166.365555,88.6119894 167.512174,88.6119894 C168.658794,88.6119894 169.656338,89.0133003 170.504836,89.815934 C171.353335,90.6185678 171.777578,91.7307721 171.777578,93.1525805 C171.777578,94.6202536 171.353335,95.75539 170.504836,96.5580237 C169.656338,97.3606575 168.658794,97.7619683 167.512174,97.7619683 Z M194.54933,82.2826807 L199.227515,82.2826807 L199.709092,87.9928179 L199.98428,87.9928179 C201.727142,86.1123617 203.60757,84.5529824 205.62562,83.3146332 C207.643671,82.076284 209.959808,81.4571187 212.5741,81.4571187 C216.564337,81.4571187 219.488173,82.5922551 221.345697,84.862562 C223.20322,87.1328689 224.131968,90.492414 224.131968,94.9412982 L224.131968,115.717942 L218.490628,115.717942 L218.490628,95.6980633 C218.490628,92.5333931 217.894395,90.1828582 216.70191,88.6463879 C215.509426,87.1099176 213.53727,86.3416939 210.785383,86.3416939 C209.776357,86.3416939 208.847609,86.4678202 207.999111,86.7200765 C207.150612,86.9723328 206.313593,87.3507116 205.488026,87.8552243 C204.66246,88.3597369 203.813974,88.9903682 202.942544,89.7471372 C202.071113,90.5039062 201.153831,91.38679 200.19067,92.3958153 L200.19067,115.717942 L194.54933,115.717942 L194.54933,82.2826807 Z M235.208259,124.936718 C235.666906,125.074312 236.159945,125.188972 236.687391,125.280702 C237.214836,125.372431 237.730807,125.418296 238.235319,125.418296 C240.574423,125.418296 242.477783,124.7418 243.945456,123.388789 C245.41313,122.035778 246.559732,120.32734 247.385298,118.263425 L248.417251,115.786739 L232.800369,82.2826807 L238.510507,82.2826807 L246.69733,100.789029 C247.339437,102.256702 248.015932,103.839014 248.726836,105.536011 C249.437741,107.233008 250.137168,108.884115 250.82514,110.489383 L251.100327,110.489383 C251.696569,108.884115 252.304269,107.244474 252.923443,105.570409 C253.542618,103.896344 254.127385,102.302567 254.677763,100.789029 L261.970227,82.2826807 L267.33638,82.2826807 L252.613858,118.469815 C251.971751,120.120948 251.237925,121.657395 250.412359,123.079203 C249.586793,124.501012 248.600715,125.727876 247.454095,126.759834 C246.307475,127.791791 244.988883,128.605879 243.498277,129.202121 C242.007672,129.798364 240.322166,130.09648 238.44171,130.09648 C236.790577,130.09648 235.322926,129.86716 234.038712,129.408512 L235.208259,124.936718 Z M274.835235,82.2826807 L279.238232,82.2826807 L279.71981,86.6856781 L279.926201,86.6856781 C280.751767,85.1262754 281.726379,83.8650127 282.850066,82.9018522 C283.973753,81.9386918 285.498734,81.4571187 287.425055,81.4571187 C290.81905,81.4571187 292.928798,83.3834108 293.754364,87.2360528 C294.763389,85.4931909 295.864128,84.094336 297.056612,83.0394459 C298.249097,81.9845559 299.785544,81.4571187 301.666,81.4571187 C304.005104,81.4571187 305.80527,82.3400026 307.066551,84.1057968 C308.327833,85.8715911 308.958464,88.4285145 308.958464,91.7766438 L308.958464,115.717942 L303.523515,115.717942 L303.523515,92.2582216 C303.523515,88.3138501 302.308116,86.3416939 299.877282,86.3416939 C298.684798,86.3416939 297.652856,86.7659368 296.781425,87.6144354 C295.909994,88.4629339 295.038576,89.7585946 294.167145,91.5014565 L294.167145,115.717942 L289.626554,115.717942 L289.626554,92.2582216 C289.626554,88.3138501 288.365291,86.3416939 285.842728,86.3416939 C284.650244,86.3416939 283.641234,86.7659368 282.815668,87.6144354 C281.990101,88.4629339 281.141616,89.7585946 280.270185,91.5014565 L280.270185,115.717942 L274.835235,115.717942 L274.835235,82.2826807 Z M348.310253,111.039757 L348.310253,115.717942 L318.727615,115.717942 L318.727615,111.039757 L331.179842,111.039757 L331.179842,78.7052454 L321.823472,78.7052454 L321.823472,75.0590132 C324.162576,74.6920949 326.203529,74.24492 327.946391,73.7174749 C329.689252,73.1900299 331.248632,72.5593986 332.624575,71.825562 L336.821182,71.825562 L336.821182,111.039757 L348.310253,111.039757 Z M367.435773,86.8920686 L358.010607,86.8920686 L358.010607,82.6266649 L367.642164,82.2826807 L368.398929,72.9263113 L373.077113,72.9263113 L373.077113,82.2826807 L389.519557,82.2826807 L389.519557,86.8920686 L373.077113,86.8920686 L373.077113,102.784137 C373.077113,104.297675 373.214706,105.616268 373.489894,106.739955 C373.765083,107.863642 374.223724,108.815322 374.865831,109.595024 C375.507938,110.374725 376.379356,110.959492 377.480111,111.349343 C378.580866,111.739194 379.933857,111.934116 381.539124,111.934116 C383.144391,111.934116 384.589111,111.796524 385.873325,111.521335 C387.157539,111.246146 388.395869,110.879234 389.588354,110.420586 L390.826697,114.548396 C389.313159,115.098773 387.639119,115.56888 385.804528,115.958731 C383.969936,116.348582 382.135372,116.543504 380.300781,116.543504 C377.869947,116.543504 375.828995,116.210989 374.177863,115.54595 C372.526731,114.88091 371.208138,113.940696 370.222045,112.72528 C369.235952,111.509863 368.525058,110.053678 368.089343,108.356681 C367.653628,106.659684 367.435773,104.779256 367.435773,102.71534 L367.435773,86.8920686 Z M400.32066,124.936718 C400.779307,125.074312 401.272347,125.188972 401.799792,125.280702 C402.327237,125.372431 402.843208,125.418296 403.34772,125.418296 C405.686824,125.418296 407.590184,124.7418 409.057858,123.388789 C410.525531,122.035778 411.672133,120.32734 412.497699,118.263425 L413.529652,115.786739 L397.91277,82.2826807 L403.622908,82.2826807 L411.809731,100.789029 C412.451838,102.256702 413.128333,103.839014 413.839237,105.536011 C414.550142,107.233008 415.249569,108.884115 415.937541,110.489383 L416.212728,110.489383 C416.80897,108.884115 417.41667,107.244474 418.035844,105.570409 C418.655019,103.896344 419.239786,102.302567 419.790164,100.789029 L427.082628,82.2826807 L432.448781,82.2826807 L417.726259,118.469815 C417.084152,120.120948 416.350326,121.657395 415.52476,123.079203 C414.699194,124.501012 413.713116,125.727876 412.566496,126.759834 C411.419876,127.791791 410.101284,128.605879 408.610678,129.202121 C407.120073,129.798364 405.434567,130.09648 403.554111,130.09648 C401.902979,130.09648 400.435327,129.86716 399.151113,129.408512 L400.32066,124.936718 Z M69.889467,135.53143 L86.9510818,135.53143 L86.9510818,173.713673 C86.9510818,176.190371 87.535849,177.967605 88.7054011,179.045427 C89.8749531,180.12325 91.4687305,180.662153 93.486781,180.662153 C95.3213724,180.662153 97.4311209,180.134716 99.8160897,179.079826 L101.260823,183.34523 C99.7472853,183.895607 98.3254983,184.365714 96.9954195,184.755565 C95.6653408,185.145415 94.0830294,185.340338 92.248438,185.340338 C88.6709848,185.340338 85.953537,184.331328 84.0960132,182.313277 C82.2384894,180.295226 81.3097414,177.291128 81.3097414,173.300892 L81.3097414,140.140818 L69.889467,140.140818 L69.889467,135.53143 Z M126.234074,185.340338 C121.326542,185.340338 117.473958,183.356716 114.676206,179.389412 C111.878454,175.422108 110.479599,169.769358 110.479599,162.430992 C110.479599,155.046762 111.878454,149.42841 114.676206,145.575768 C117.473958,141.723126 121.326542,139.796834 126.234074,139.796834 C131.141606,139.796834 134.99419,141.723126 137.791942,145.575768 C140.589694,149.42841 141.988549,155.046762 141.988549,162.430992 C141.988549,169.769358 140.589694,175.422108 137.791942,179.389412 C134.99419,183.356716 131.141606,185.340338 126.234074,185.340338 Z M126.234074,144.337425 C124.720536,144.337425 123.321681,144.681406 122.037467,145.369377 C120.753253,146.057349 119.641049,147.146621 118.700821,148.637227 C117.760592,150.127832 117.038233,152.00826 116.53372,154.278567 C116.029208,156.548874 115.776955,159.266322 115.776955,162.430992 C115.776955,168.714468 116.751567,173.346741 118.700821,176.327953 C120.650074,179.309164 123.161133,180.799747 126.234074,180.799747 C129.307014,180.799747 131.818074,179.309164 133.767327,176.327953 C135.716581,173.346741 136.691193,168.714468 136.691193,162.430992 C136.691193,159.266322 136.43894,156.548874 135.934427,154.278567 C135.429915,152.00826 134.707555,150.127832 133.767327,148.637227 C132.827099,147.146621 131.714895,146.057349 130.430681,145.369377 C129.146467,144.681406 127.747612,144.337425 126.234074,144.337425 Z M126.234074,166.558802 C125.087454,166.558802 124.08991,166.157491 123.241412,165.354858 C122.392913,164.552224 121.96867,163.417087 121.96867,161.949414 C121.96867,160.527606 122.392913,159.415402 123.241412,158.612768 C124.08991,157.810134 125.087454,157.408823 126.234074,157.408823 C127.380694,157.408823 128.378238,157.810134 129.226736,158.612768 C130.075235,159.415402 130.499478,160.527606 130.499478,161.949414 C130.499478,163.417087 130.075235,164.552224 129.226736,165.354858 C128.378238,166.157491 127.380694,166.558802 126.234074,166.558802 Z M150.381763,151.079515 L156.0919,151.079515 L163.797145,170.067441 C164.485117,171.764438 165.13868,173.427011 165.757855,175.055211 C166.377029,176.683411 166.984729,178.30012 167.580971,179.905388 L167.856158,179.905388 C168.452401,178.30012 169.037168,176.683411 169.610478,175.055211 C170.183787,173.427011 170.814419,171.764438 171.502391,170.067441 L179.207636,151.079515 L184.642586,151.079515 L170.814422,184.514776 L164.485113,184.514776 L150.381763,151.079515 Z M194.962111,175.433594 C196.429784,176.809537 198.184086,178.024936 200.225069,179.079826 C202.266052,180.134716 204.708315,180.662153 207.551931,180.662153 C209.065469,180.662153 210.464324,180.467231 211.748538,180.07738 C213.032752,179.687529 214.144957,179.148626 215.085185,178.460654 C216.025413,177.772683 216.759238,176.935663 217.286683,175.94957 C217.814128,174.963477 218.077847,173.851273 218.077847,172.612923 C218.077847,171.328709 217.791196,170.147709 217.217887,169.069887 C216.644577,167.992064 215.715829,167.063316 214.431615,166.283615 C213.147401,165.503913 211.496293,164.90768 209.478243,164.494897 C207.460192,164.082114 205.006463,163.875726 202.116982,163.875726 L202.116982,159.541525 C204.731274,159.541525 206.944217,159.335137 208.755876,158.922354 C210.567535,158.50957 212.046652,157.936269 213.193272,157.202433 C214.339891,156.468596 215.176911,155.597178 215.704356,154.588153 C216.231801,153.579128 216.49552,152.501321 216.49552,151.354702 C216.49552,149.199057 215.681432,147.502085 214.053232,146.263736 C212.425032,145.025387 210.257954,144.406222 207.551931,144.406222 C205.488016,144.406222 203.538792,144.818999 201.704201,145.644565 C199.869609,146.470131 198.218502,147.547937 196.750828,148.878016 L193.723768,145.30058 C195.558359,143.695313 197.645176,142.37672 199.98428,141.344763 C202.323384,140.312805 204.914705,139.796834 207.758322,139.796834 C209.822237,139.796834 211.737063,140.049086 213.502858,140.553599 C215.268652,141.058112 216.805099,141.780471 218.112245,142.720699 C219.419392,143.660927 220.439868,144.818996 221.173704,146.194939 C221.907541,147.570883 222.274454,149.153194 222.274454,150.941921 C222.274454,153.602078 221.403036,155.780623 219.660174,157.47762 C217.917312,159.174617 215.669972,160.481744 212.918084,161.39904 L212.918084,161.674227 C214.385758,161.99528 215.773146,162.465387 217.080293,163.084562 C218.387439,163.703737 219.545508,164.483426 220.554533,165.423654 C221.563558,166.363882 222.354714,167.453155 222.928024,168.691504 C223.501334,169.929853 223.787984,171.305776 223.787984,172.819314 C223.787984,174.745635 223.375207,176.488471 222.549641,178.047873 C221.724075,179.607276 220.588939,180.925869 219.144198,182.003691 C217.699457,183.081514 216.013952,183.907067 214.087631,184.480377 C212.16131,185.053687 210.097425,185.340338 207.895916,185.340338 C204.089138,185.340338 200.901584,184.709706 198.333156,183.448425 C195.764728,182.187143 193.677911,180.75389 192.072644,179.148623 L194.962111,175.433594 Z M237.13457,176.396749 C239.015026,177.772693 241.033046,178.873431 243.188691,179.698997 C245.344336,180.524563 247.935658,180.93734 250.962734,180.93734 C253.989809,180.93734 256.23715,180.432835 257.704823,179.42381 C259.172496,178.414785 259.906322,177.176454 259.906322,175.708781 C259.906322,174.424567 259.115166,173.277965 257.532831,172.268939 C255.950496,171.259914 253.118388,170.250904 249.036422,169.241879 C247.29356,168.829096 245.653919,168.32459 244.117449,167.728348 C242.580978,167.132106 241.239453,166.432679 240.092834,165.630045 C238.946214,164.827411 238.028932,163.944527 237.34096,162.981367 C236.652989,162.018206 236.309008,160.9404 236.309008,159.747916 C236.309008,158.417837 236.607125,157.16804 237.203367,155.998488 C237.799609,154.828936 238.682493,153.819926 239.852045,152.971427 C241.021597,152.122929 242.489248,151.4579 244.255042,150.976319 C246.020836,150.494739 248.050323,150.253953 250.343562,150.253953 C252.866125,150.253953 255.319854,150.678195 257.704823,151.526694 C260.089792,152.375192 262.107812,153.372737 263.758945,154.519356 L261.007071,158.165588 C259.539398,157.110698 257.911223,156.262213 256.122496,155.620106 C254.333769,154.977999 252.407477,154.65695 250.343562,154.65695 C248.784159,154.65695 247.477033,154.783076 246.422142,155.035332 C245.367252,155.287589 244.518767,155.63157 243.87666,156.067285 C243.234553,156.503 242.775912,157.018972 242.500723,157.615214 C242.225534,158.211456 242.087942,158.830621 242.087942,159.472728 C242.087942,160.848672 243.028156,161.983808 244.908612,162.878172 C246.789068,163.772535 249.242798,164.609555 252.269873,165.389256 C256.810487,166.535876 260.170032,167.843002 262.348609,169.310675 C264.527187,170.778349 265.616459,172.796369 265.616459,175.364797 C265.616459,176.74074 265.29541,178.024935 264.653303,179.21742 C264.011196,180.409904 263.059516,181.464778 261.798235,182.382074 C260.536953,183.29937 258.977574,184.021729 257.12005,184.549174 C255.262526,185.076619 253.141312,185.340338 250.756343,185.340338 C247.454078,185.340338 244.415582,184.824367 241.640763,183.792409 C238.865943,182.760451 236.446612,181.533587 234.382697,180.111778 L237.13457,176.396749 Z M69.8206702,236.662776 C69.8206702,233.865024 70.3137092,231.376897 71.2998021,229.198319 C72.285895,227.019742 73.6274198,225.173712 75.3244169,223.660174 C77.0214139,222.146636 79.0050361,221.000034 81.275343,220.220332 C83.5456499,219.440631 85.942049,219.050786 88.4646121,219.050786 C91.2164992,219.050786 93.5899663,219.532359 95.5850844,220.49552 C97.5802026,221.45868 99.2657082,222.605283 100.641652,223.935361 L97.8209815,227.581594 C96.445038,226.389109 95.0117849,225.448895 93.5211794,224.760923 C92.0305739,224.072952 90.4138645,223.728971 88.6710026,223.728971 C86.7446817,223.728971 84.9789139,224.038554 83.3736464,224.657728 C81.768379,225.276903 80.4039221,226.159787 79.2802348,227.306406 C78.1565476,228.453026 77.2736637,229.817483 76.6315567,231.399818 C75.9894497,232.982153 75.6684011,234.736455 75.6684011,236.662776 C75.6684011,238.589097 75.9779837,240.331932 76.5971583,241.891335 C77.2163329,243.450738 78.0877508,244.792263 79.211438,245.91595 C80.3351252,247.039637 81.6881161,247.911055 83.2704512,248.53023 C84.8527863,249.149404 86.607088,249.458987 88.533409,249.458987 C90.5973243,249.458987 92.4892183,249.057676 94.2091478,248.255042 C95.9290772,247.452408 97.4999225,246.454864 98.9217309,245.26238 L101.398417,248.908612 C99.5638255,250.559744 97.5114071,251.843939 95.2411003,252.761235 C92.9707934,253.678531 90.5973264,254.137172 88.120628,254.137172 C85.5063352,254.137172 83.0870041,253.747327 80.862562,252.967625 C78.6381199,252.187924 76.7003618,251.052788 75.0492296,249.562182 C73.3980973,248.071577 72.1139026,246.237013 71.1966069,244.058435 C70.2793112,241.879858 69.8206702,239.414663 69.8206702,236.662776 Z M126.234074,254.137172 C121.326542,254.137172 117.473958,252.153549 114.676206,248.186245 C111.878454,244.218941 110.479599,238.566191 110.479599,231.227826 C110.479599,223.843595 111.878454,218.225244 114.676206,214.372602 C117.473958,210.51996 121.326542,208.593668 126.234074,208.593668 C131.141606,208.593668 134.99419,210.51996 137.791942,214.372602 C140.589694,218.225244 141.988549,223.843595 141.988549,231.227826 C141.988549,238.566191 140.589694,244.218941 137.791942,248.186245 C134.99419,252.153549 131.141606,254.137172 126.234074,254.137172 Z M126.234074,213.134259 C124.720536,213.134259 123.321681,213.478239 122.037467,214.166211 C120.753253,214.854183 119.641049,215.943455 118.700821,217.434061 C117.760592,218.924666 117.038233,220.805094 116.53372,223.075401 C116.029208,225.345708 115.776955,228.063156 115.776955,231.227826 C115.776955,237.511301 116.751567,242.143575 118.700821,245.124786 C120.650074,248.105997 123.161133,249.59658 126.234074,249.59658 C129.307014,249.59658 131.818074,248.105997 133.767327,245.124786 C135.716581,242.143575 136.691193,237.511301 136.691193,231.227826 C136.691193,228.063156 136.43894,225.345708 135.934427,223.075401 C135.429915,220.805094 134.707555,218.924666 133.767327,217.434061 C132.827099,215.943455 131.714895,214.854183 130.430681,214.166211 C129.146467,213.478239 127.747612,213.134259 126.234074,213.134259 Z M126.234074,235.355636 C125.087454,235.355636 124.08991,234.954325 123.241412,234.151691 C122.392913,233.349058 121.96867,232.213921 121.96867,230.746248 C121.96867,229.32444 122.392913,228.212235 123.241412,227.409602 C124.08991,226.606968 125.087454,226.205657 126.234074,226.205657 C127.380694,226.205657 128.378238,226.606968 129.226736,227.409602 C130.075235,228.212235 130.499478,229.32444 130.499478,230.746248 C130.499478,232.213921 130.075235,233.349058 129.226736,234.151691 C128.378238,234.954325 127.380694,235.355636 126.234074,235.355636 Z M151.000934,219.876348 L155.403931,219.876348 L155.885509,224.279346 L156.0919,224.279346 C156.917466,222.719943 157.892078,221.45868 159.015765,220.49552 C160.139452,219.532359 161.664434,219.050786 163.590755,219.050786 C166.984749,219.050786 169.094497,220.977078 169.920063,224.82972 C170.929089,223.086858 172.029827,221.688004 173.222311,220.633113 C174.414796,219.578223 175.951243,219.050786 177.831699,219.050786 C180.170803,219.050786 181.970969,219.93367 183.232251,221.699464 C184.493532,223.465259 185.124164,226.022182 185.124164,229.370311 L185.124164,253.311609 L179.689214,253.311609 L179.689214,229.851889 C179.689214,225.907518 178.473815,223.935361 176.042982,223.935361 C174.850497,223.935361 173.818555,224.359604 172.947124,225.208103 C172.075693,226.056601 171.204275,227.352262 170.332844,229.095124 L170.332844,253.311609 L165.792253,253.311609 L165.792253,229.851889 C165.792253,225.907518 164.530991,223.935361 162.008427,223.935361 C160.815943,223.935361 159.806933,224.359604 158.981367,225.208103 C158.155801,226.056601 157.307315,227.352262 156.435884,229.095124 L156.435884,253.311609 L151.000934,253.311609 L151.000934,219.876348 Z M200.19067,256.13228 L200.19067,267.41496 L194.54933,267.41496 L194.54933,219.876348 L199.227515,219.876348 L199.709092,224.141752 L199.915483,224.141752 C201.474886,222.674079 203.275051,221.45868 205.316034,220.49552 C207.357017,219.532359 209.409436,219.050786 211.473351,219.050786 C213.720725,219.050786 215.704348,219.452097 217.424277,220.254731 C219.144206,221.057365 220.588926,222.203967 221.758478,223.694573 C222.92803,225.185178 223.810913,226.973878 224.407156,229.060726 C225.003398,231.147573 225.301515,233.498108 225.301515,236.112401 C225.301515,238.956018 224.888738,241.490009 224.063172,243.714451 C223.237605,245.938893 222.125401,247.830787 220.726525,249.39019 C219.327649,250.949593 217.71094,252.130593 215.876348,252.933227 C214.041757,253.735861 212.115465,254.137172 210.097414,254.137172 C208.538012,254.137172 206.852506,253.758793 205.040847,253.002024 C203.229188,252.245255 201.566614,251.178915 200.053077,249.802971 L200.19067,256.13228 Z M200.19067,245.46877 C201.795938,246.890579 203.401181,247.899589 205.006449,248.495831 C206.611716,249.092073 207.987639,249.39019 209.134259,249.39019 C212.161334,249.39019 214.637996,248.220655 216.564317,245.881551 C218.490638,243.542447 219.453784,240.286097 219.453784,236.112401 C219.453784,234.27781 219.270327,232.60377 218.903409,231.090232 C218.536491,229.576694 217.974655,228.281034 217.217887,227.203211 C216.461118,226.125389 215.486506,225.288369 214.294021,224.692127 C213.101537,224.095884 211.67975,223.797768 210.028617,223.797768 C208.560944,223.797768 206.990099,224.199079 205.316034,225.001712 C203.64197,225.804346 201.933532,227.077075 200.19067,228.819937 L200.19067,245.46877 Z M254.746559,236.662776 L254.746559,223.041003 C254.792424,221.848518 254.838288,220.552857 254.884153,219.153982 C254.930018,217.755106 254.998814,216.459445 255.090544,215.26696 L254.746559,215.26696 C254.058588,216.32185 253.324762,217.388191 252.545061,218.466013 C251.765359,219.543836 251.008602,220.610176 250.274765,221.665066 L238.372913,236.662776 L254.746559,236.662776 Z M266.923599,241.203367 L260.112712,241.203367 L260.112712,253.311609 L254.746559,253.311609 L254.746559,241.203367 L232.112401,241.203367 L232.112401,237.419541 L254.058591,209.41923 L260.112712,209.41923 L260.112712,236.662776 L266.923599,236.662776 L266.923599,241.203367 Z M277.10553,219.876348 L281.783715,219.876348 L282.265293,225.586485 L282.54048,225.586485 C284.283342,223.706029 286.16377,222.14665 288.181821,220.908301 C290.199871,219.669952 292.516008,219.050786 295.130301,219.050786 C299.120537,219.050786 302.044373,220.185923 303.901897,222.45623 C305.759421,224.726536 306.688169,228.086082 306.688169,232.534966 L306.688169,253.311609 L301.046828,253.311609 L301.046828,233.291731 C301.046828,230.127061 300.450595,227.776526 299.258111,226.240055 C298.065626,224.703585 296.09347,223.935361 293.341583,223.935361 C292.332558,223.935361 291.40381,224.061488 290.555311,224.313744 C289.706813,224.566 288.869793,224.944379 288.044227,225.448892 C287.218661,225.953404 286.370175,226.584036 285.498744,227.340805 C284.627313,228.097574 283.710031,228.980458 282.746871,229.989483 L282.746871,253.311609 L277.10553,253.311609 L277.10553,219.876348 Z M317.764459,262.530385 C318.223107,262.66798 318.716146,262.78264 319.243591,262.874369 C319.771036,262.966099 320.287007,263.011963 320.79152,263.011963 C323.130624,263.011963 325.033984,262.335468 326.501657,260.982456 C327.96933,259.629445 329.115933,257.921008 329.941499,255.857092 L330.973451,253.380406 L315.35657,219.876348 L321.066707,219.876348 L329.25353,238.382697 C329.895637,239.85037 330.572133,241.432681 331.283037,243.129678 C331.993941,244.826675 332.693369,246.477783 333.38134,248.08305 L333.656528,248.08305 C334.25277,246.477783 334.860469,244.838141 335.479644,243.164077 C336.098818,241.490012 336.683586,239.896234 337.233963,238.382697 L344.526427,219.876348 L349.89258,219.876348 L335.170058,256.063483 C334.527951,257.714615 333.794125,259.251062 332.968559,260.672871 C332.142993,262.094679 331.156915,263.321544 330.010296,264.353501 C328.863676,265.385459 327.545083,266.199547 326.054478,266.795789 C324.563872,267.392031 322.878366,267.690148 320.99791,267.690148 C319.346778,267.690148 317.879127,267.460827 316.594913,267.002179 L317.764459,262.530385 Z M101.467214,326.855425 L101.467214,331.74 L68.4447335,331.74 L68.4447335,326.855425 L101.467214,326.855425 Z" id="4n0nym1ty-l0v3s-c0mp"></path>
        </g>
    </g>
</svg>